<?xml version="1.0" standalone="no"?>
<!DOCTYPE svg PUBLIC "-//W3C//DTD SVG 1.1//EN" "http://www.w3.org/Graphics/SVG/1.1/DTD/svg11.dtd" >
<svg xmlns="http://www.w3.org/2000/svg">
<metadata>
This is a custom SVG webfont generated by Font Squirrel.
Copyright   :  2000 Adobe Systems Incorporated All Rights Reserved
Designer    : Carol Twombly
Foundry URL : httpwwwadobecomtype
</metadata>
<defs>
<font id="ChaparralProBold" horiz-adv-x="1153" >
<font-face units-per-em="2048" ascent="1516" descent="-532" />
<missing-glyph horiz-adv-x="460" />
<glyph unicode=" "  horiz-adv-x="460" />
<glyph unicode="&#x09;" horiz-adv-x="460" />
<glyph unicode="&#xa0;" horiz-adv-x="460" />
<glyph unicode="!" horiz-adv-x="643" d="M109 1282q61 14 209.5 34.5t193.5 20.5h2q2 -2 2 -4q-10 -86 -47 -437t-47 -443q-29 -10 -100.5 -18.5t-100.5 -8.5q-6 41 -49 401q-32 289 -63 455zM152 137q0 72 50 121t126 49h2q74 0 119 -47t45 -118.5t-48.5 -116.5t-126.5 -45q-70 0 -118.5 43.5t-48.5 113.5z" />
<glyph unicode="&#x22;" horiz-adv-x="907" d="M127 1395q45 14 136 26.5t120 10.5q-45 -639 -45 -641q-74 -18 -145 -19q-37 406 -66 623zM532 1397q43 14 135.5 25.5t120.5 9.5q-39 -469 -45 -641q-74 -18 -145 -19q-37 402 -66 625z" />
<glyph unicode="#" d="M55 385q-2 53 8 170h220q6 39 41 272h-215q0 59 8 158q37 0 114.5 1t116.5 1q12 70 32.5 196t22.5 138q63 4 187 4q-12 -70 -60 -336h199q6 41 17.5 109.5t19.5 124t16 98.5h189q-8 -51 -29.5 -166t-30.5 -166q33 0 97.5 1t95.5 3q2 -78 -8 -168h-215q-33 -215 -43 -272 h206q4 -84 -8 -162q-27 0 -104.5 -1t-122.5 -1q-10 -53 -30.5 -175t-30.5 -177q-117 -4 -170 -2q16 96 57 354q-33 0 -100.5 -1t-102.5 -1q-25 -131 -63 -350q-66 -6 -168 -2q18 119 55 352q-39 0 -107.5 -1t-93.5 -1zM461 553h201q16 111 40 272h-200q-29 -184 -41 -272z " />
<glyph unicode="$" d="M98 129q0 35 39 109.5t76 103.5q150 -102 250 -119q0 51 3 156.5t5 161.5q-68 29 -95.5 40t-79.5 37.5t-74.5 50t-50.5 58.5t-38 80t-10 100v2q0 78 43 147.5t106 114.5q117 82 293 97l6 190q78 16 160 19q-4 -131 -8 -205q174 0 281 -62q0 -45 -34 -116.5t-69 -98.5 q-111 80 -186 97q-2 -72 -10 -295q172 -49 254.5 -129t82.5 -217q0 -166 -110 -271q-123 -111 -322 -125q-4 -119 -8 -194q-78 -12 -149 -13q0 8 6 201q-216 0 -361 80zM395 956q0 -45 36 -73.5t122 -51.5q2 43 5 132.5t3 130.5q-82 -2 -121 -39q-45 -37 -45 -97v-2z M612 225q80 0 123 39q41 35 41 101v2q0 106 -155 141q-5 -189 -9 -283z" />
<glyph unicode="%" horiz-adv-x="1748" d="M80 963q0 207 139 307q88 66 236 65q440 -4 829 21q31 -41 68 -111q-301 -471 -422 -659q-143 -219 -424 -658q-84 43 -141 78q225 346 419 656q213 338 336 544l-10 6q-225 0 -410 2q72 -68 72 -229q0 -221 -149 -330q-84 -66 -209 -65q-123 0 -207 63q-127 95 -127 310 zM332 963q0 -176 37 -218q25 -31 57 -30q37 0 57 26q37 45 37 226q0 158 -31 211q-18 33 -59 32h-2q-27 0 -51 -26q-45 -51 -45 -221zM981 334q0 92 39 181t96 134q94 74 219 74h2q141 0 217 -70q113 -98 113 -288q0 -104 -39 -189.5t-102 -134.5q-82 -63 -205 -64 q-127 0 -209 58q-53 39 -92 119t-39 180zM1231 342q0 -172 33 -209q23 -31 59 -31q33 0 55 27q39 43 39 219q0 168 -33 217q-18 33 -57 33h-2q-29 0 -55 -29q-39 -43 -39 -227z" />
<glyph unicode="&#x26;" horiz-adv-x="1576" d="M49 338q0 117 77 217t202 158v8q-160 127 -160 270q0 129 100 228q123 123 357 122q182 0 282 -84q100 -76 101 -198q0 -197 -234 -324v-8q170 -131 303 -274q33 33 58.5 102.5t25.5 118.5q0 16 -12 16l-86 6q0 55 4 154h252q39 0 113.5 1t105.5 1q4 -80 0 -156l-106 -8 q-82 -233 -222 -373q90 -82 129 -120q27 -29 60 -29l135 -2q0 -111 -2 -162q-94 -6 -432 -22q-106 119 -117 129q-182 -129 -448 -129q-190 0 -299 61q-187 104 -187 297zM393 410q0 -109 80 -179q61 -55 174 -55h2q121 0 207 66q-264 268 -389 358q-74 -67 -74 -190z M473 1044q0 -104 162 -215q92 80 92 197q0 78 -41 119q-31 33 -88 33q-53 0 -88 -35q-37 -37 -37 -96v-3z" />
<glyph unicode="'" horiz-adv-x="493" d="M121 1397q45 14 135 25.5t121 9.5q-39 -469 -45 -641q-74 -18 -146 -19q-36 392 -65 625z" />
<glyph unicode="(" horiz-adv-x="831" d="M172 543v2q0 299 151.5 547.5t376.5 388.5q37 -41 84 -105q-150 -133 -231.5 -342t-81.5 -465q0 -279 80 -474t233 -369q-53 -53 -104 -91q-109 84 -188.5 164t-157.5 190.5t-120 251t-42 302.5z" />
<glyph unicode=")" horiz-adv-x="831" d="M41 -262q319 315 319 835q0 268 -76.5 463t-232.5 353q33 35 96 90q512 -342 512 -885v-2q0 -309 -147 -551t-375 -406q-51 50 -96 103z" />
<glyph unicode="*" horiz-adv-x="835" d="M61 891q168 106 254 160q-86 53 -254 159q43 70 76 111q70 -49 221 -166q-2 31 -4 87t-4 102.5t-4 87.5q23 2 72 2q47 0 67 -2q-8 -184 -12 -279q147 115 221 170q35 -45 76 -113q-25 -16 -113 -72.5t-137 -88.5q168 -106 250 -162q-41 -63 -78 -111q-102 82 -217 168 q4 -90 8 -274q-43 -4 -137 0q6 92 14 276q-45 -33 -126.5 -95.5t-96.5 -72.5q-37 45 -76 113z" />
<glyph unicode="+" d="M127 397q2 33 4 95.5t2 87.5q215 0 354 2v192q0 127 -2 182q131 8 203 9q-2 -117 -6 -379q59 0 179 1t169 3q0 -113 -8 -195h-342q-2 -137 -2 -385q-88 -6 -191 -6q0 242 -2 393h-358z" />
<glyph unicode="," horiz-adv-x="610" d="M70 -287q168 125 168 254q0 49 -40 82t-94 45q-6 98 44.5 164t125.5 66h2q82 0 146.5 -71t64.5 -165q0 -139 -87 -272t-236 -213q-65 73 -94 110z" />
<glyph unicode="-" horiz-adv-x="768" d="M76 406l6 184q201 0 301 2q125 0 309 4q0 -111 -8 -193h-313h-2q-39 0 -143.5 1.5t-149.5 1.5z" />
<glyph unicode="." horiz-adv-x="610" d="M129 150q0 70 50 119.5t130 49.5h2q78 0 124 -48t46 -117q0 -80 -50 -127t-130 -47q-66 0 -119 48t-53 122z" />
<glyph unicode="/" horiz-adv-x="835" d="M0 -72q180 424 317 754q49 115 155 371t153 368q100 -25 204 -63q-51 -117 -169.5 -388.5t-151.5 -346.5q-100 -242 -326 -756q-139 45 -182 61z" />
<glyph unicode="0" d="M78 602q0 416 203 612q133 127 329 127q193 0 301 -118q166 -170 166 -557v-2q0 -379 -205 -574q-117 -111 -317 -110q-172 0 -287 98q-190 172 -190 524zM436 627q0 -332 49 -422q35 -66 93 -66q53 0 88 54q55 82 55 425q0 410 -47 494q-39 68 -88 68h-2q-49 0 -86 -56 q-27 -39 -44.5 -187t-17.5 -310z" />
<glyph unicode="1" d="M102 1126q92 25 258 82.5t288 100.5t130 43t8 -11q0 -186 -4 -618t-4 -545l283 -6q0 -63 -4 -170h-459q-61 0 -211.5 -1t-243.5 -1q0 115 4 172l287 6q10 0 10 12v809q-76 -10 -315 -43q-19 104 -27 170z" />
<glyph unicode="2" d="M68 180q186 131 305 246q154 143 235.5 259t81.5 243q0 94 -45 157q-45 57 -127 57.5t-135 -34.5q-6 -6 -12 -21l-47 -204q-98 8 -211 22q6 131 22 367q176 70 402 69q256 0 385 -110q127 -109 127 -281v-2q0 -96 -39 -188t-114 -175t-123 -127t-128 -110 q-74 -55 -156 -112v-9q84 2 314.5 11.5t257.5 9.5l4 -4q0 -139 -14 -246q-41 0 -312.5 1t-353.5 1h-260q-26 69 -57 180z" />
<glyph unicode="3" d="M90 356q98 18 213 35l47 -192q2 -10 15 -19q37 -18 88 -18q123 0 182 53t59 143q0 102 -77.5 159.5t-204.5 60.5h-115q-6 92 -6 190q217 2 304 62.5t87 166.5q0 70 -39 111q-47 49 -147 49q-74 0 -115 -31q-6 -4 -10 -18l-43 -182q-125 8 -205 20q8 221 14 330 q170 66 406 65q240 0 354 -75q133 -90 133 -232q0 -113 -75.5 -194.5t-202.5 -116.5v-12q150 -27 229.5 -119t79.5 -201q0 -178 -172 -305q-141 -106 -477 -106q-176 0 -279 22q-25 174 -43 354z" />
<glyph unicode="4" d="M25 541q188 270 266 374q199 270 315 414q145 0 309 -10q0 -104 -2 -376.5t-2 -403.5q33 0 109 1t94 1q0 -102 -6 -199h-199q0 -119 -2 -174l121 -4q0 -109 -2 -162h-303q-47 0 -154.5 -1t-165.5 -1q0 111 3 162l182 6q8 0 8 10v152q-59 -2 -490 -2q-44 98 -81 213z M293 553q-4 -12 4 -12q92 -4 299 -4l2 467h-12q-63 -90 -152 -230q-82 -125 -141 -221z" />
<glyph unicode="5" d="M104 338q80 20 205 39l51 -187q2 -14 17 -20q35 -16 80 -16q111 0 172 55q70 63 69 176q0 117 -83 178.5t-230 61.5q-80 0 -197 -7l-41 39q33 332 82 664h389q248 0 400 2q0 -127 -17 -254q-430 4 -569 6q-27 -143 -37 -211q35 6 150 6q231 0 365 -113.5t134 -287.5v-2 q0 -123 -53 -221.5t-137 -153.5q-166 -113 -436 -112q-168 0 -268 18q-15 98 -46 340z" />
<glyph unicode="6" d="M84 551q0 373 182 590q170 201 479 200q115 0 197 -20q29 -207 39 -322q-80 -18 -201 -36l-43 157q-4 18 -12 21q-20 14 -68 14q-92 0 -145 -86q-68 -115 -78 -297h10q127 70 254 70q164 0 263 -94q51 -49 84.5 -129t33.5 -148q0 -227 -159 -381q-113 -111 -334 -110 q-201 0 -310 94q-192 160 -192 477zM440 567q-8 -242 52 -352q41 -78 112 -78h2q61 0 99 58q37 59 36 200q0 57 -17 117.5t-44 91.5q-33 39 -88 39q-41 0 -87.5 -21.5t-64.5 -54.5z" />
<glyph unicode="7" d="M84 891q14 109 66 432q63 0 194 -4h698q35 -94 66 -232q-350 -537 -420 -833q-14 -59 -14 -248q-82 -14 -336 -14q-4 174 31 270q98 242 434 785v10q-55 0 -117.5 1t-93.5 1h-68h-54q-17 0 -37.5 -1t-33.5 -3l-24 -4q-25 -6 -39 -41l-49 -156q-127 19 -203 37z" />
<glyph unicode="8" d="M72 303q0 207 254 346v10q-197 113 -197 320q0 86 45 157.5t109 114.5q131 90 323 90q203 0 305 -81q113 -86 113 -222q0 -182 -197 -299v-8q117 -61 183.5 -151.5t66.5 -190.5q0 -186 -164 -313q-129 -96 -368 -96q-213 0 -330 75q-143 96 -143 248zM403 344 q0 -84 39 -139q18 -29 59.5 -47.5t78.5 -18.5q80 0 127 49q43 49 43 131v3q0 141 -256 245q-91 -88 -91 -223zM436 1018q0 -61 52.5 -108.5t166.5 -96.5q78 78 78 201q0 70 -35 114q-37 51 -108 52q-66 0 -103 -33q-51 -47 -51 -127v-2z" />
<glyph unicode="9" d="M80 872q0 213 160 357q137 113 338 112q190 0 301 -100q82 -74 135 -204t53 -294q0 -203 -52 -359.5t-141 -244.5q-162 -160 -446 -159q-145 0 -231 18q-8 47 -17.5 99.5t-21 115.5t-17.5 98q76 23 195 45l55 -172q6 -16 17 -20q33 -18 92 -19q104 0 155 88 q59 109 64 320h-8q-135 -68 -246 -68q-164 0 -266 99q-119 118 -119 288zM414 915q0 -133 51 -198q37 -45 100 -45q96 0 148 65q2 125 -12.5 227.5t-34.5 139.5q-37 80 -115 80h-2q-63 0 -96 -54q-39 -61 -39 -215z" />
<glyph unicode=":" horiz-adv-x="610" d="M133 147q0 68 49 118t129 50h2q78 0 123 -47t45 -116q0 -78 -49 -125t-129 -47q-68 0 -119 46.5t-51 120.5zM133 748q0 70 49 120t129 50h2q78 0 123 -48.5t45 -117.5q0 -78 -49 -124t-129 -46q-68 0 -119 47t-51 119z" />
<glyph unicode=";" horiz-adv-x="610" d="M70 -285q168 125 168 254q0 49 -40 82t-94 45q-6 98 44.5 164t125.5 66h2q82 0 146.5 -72t64.5 -164q0 -139 -87 -272t-236 -213q-65 73 -94 110zM131 748q0 70 49 120t129 50h2q76 0 122 -48.5t46 -117.5q0 -78 -49 -124t-129 -46q-68 0 -119 47t-51 119z" />
<glyph unicode="&#x3c;" d="M211 578q459 322 614 428q47 -49 99 -138q-102 -80 -261 -202.5t-210 -163.5q80 -68 236.5 -198t238.5 -198q-45 -70 -105 -131q-43 31 -264 193t-342 254q-6 70 -6 156z" />
<glyph unicode="=" d="M127 199q0 102 6 194q119 0 449.5 -1t447.5 -1q0 -96 -6 -184q-418 0 -897 -8zM127 592q0 96 6 184q397 0 897 8q0 -102 -6 -194q-127 0 -456.5 1t-440.5 1z" />
<glyph unicode="&#x3e;" d="M188 109q449 362 480 387q-174 141 -467 372q51 84 98 138q279 -195 604 -431q6 -74 6 -155q-33 -25 -616 -445q-39 42 -105 134z" />
<glyph unicode="?" horiz-adv-x="1003" d="M66 956q4 55 11 166t11 160q61 29 178 49.5t236 20.5q197 0 315.5 -84t118.5 -236v-2q0 -137 -88 -233.5t-270 -190.5q-33 -18 -33 -39q0 -51 8 -123q-88 -33 -217 -38q-27 39 -52.5 107.5t-27.5 123.5q176 119 240.5 191.5t64.5 172.5q0 66 -39 106t-92 40 q-57 0 -90 -25q-12 -8 -14 -22l-47 -168q-119 10 -213 24zM268 131q0 70 50.5 118t125.5 48h2q72 0 118 -45t46 -119q0 -68 -48 -110.5t-128 -42.5q-68 0 -117 42.5t-49 108.5z" />
<glyph unicode="@" horiz-adv-x="1425" d="M78 391q0 307 203.5 504t506.5 197q250 0 404 -136.5t154 -349.5q0 -106 -45.5 -194t-110.5 -136q-63 -51 -140 -75.5t-223 -24.5q-16 0 -39.5 14.5t-29.5 26.5q0 10 14 96l-10 6q-57 -55 -132 -99t-120 -44q-29 0 -84 33t-76 70q-4 25 -4 49q0 86 33 188 q35 104 120 198.5t195 94.5q92 0 162 -55h6l35 57q53 -10 186 -45q-18 -74 -106 -459q-2 -4 1 -6t9 -2q72 0 135 59q84 90 84 224q0 172 -115.5 290.5t-338.5 118.5q-219 0 -375 -158.5t-156 -422.5q0 -215 128 -318.5t306 -103.5q150 0 275 75q41 -51 45 -86 q-135 -90 -365 -90q-217 0 -374.5 130t-157.5 374zM588 381q0 -37 30.5 -37t85 49t70.5 90q14 33 43 156q-23 35 -74 35q-61 0 -114 -119q-41 -100 -41 -172v-2z" />
<glyph unicode="A" horiz-adv-x="1306" d="M-18 0q0 117 2 172l94 6q8 0 12 10q70 184 224.5 600t203.5 549q55 6 283 6q57 -172 195.5 -585.5t195.5 -579.5l104 -6q0 -115 -2 -172h-245h-330q0 117 2 174l100 4q10 4 8 12q-6 14 -20 63.5t-21 63.5q-6 10 -14 11l-381 -4q-4 -23 -17.5 -74t-17.5 -72l113 -6 q0 -115 -2 -172h-287h-200zM446 510q-1 -4 -1 -7q0 -5 6 -5h286q-18 61 -65 220t-74 245h-12q-14 -47 -63.5 -210t-76.5 -243z" />
<glyph unicode="B" horiz-adv-x="1306" d="M94 0q0 115 2 168l111 6q8 0 8 8v969l-119 6q0 115 2 170q307 6 422 6q129 0 191.5 -2t141.5 -14t134 -37q74 -33 124 -104.5t50 -149.5q0 -100 -66.5 -179t-170.5 -118v-16q133 -23 221 -114t88 -218q0 -166 -152.5 -274.5t-410.5 -108.5q-35 0 -154 1t-135 1h-287z M551 215q-2 -31 23.5 -43t66.5 -12q100 0 165.5 55t65.5 154q0 90 -72.5 157.5t-191.5 67.5q-49 0 -55 -2zM555 760q6 -2 51 -2q98 0 159.5 57t61.5 152q0 84 -57 145.5t-143 61.5q-49 0 -70 -7z" />
<glyph unicode="C" horiz-adv-x="1251" d="M88 584v2q0 385 285 604q203 164 501 164q188 0 271 -31q18 -186 33 -418q-70 -12 -217 -28l-48 213q-4 18 -14 24q-33 27 -94 27q-115 0 -197 -84q-139 -145 -139 -403.5t119 -364.5q90 -84 239 -84q68 0 167.5 18.5t152.5 38.5q18 -80 35 -192q-98 -37 -222 -63.5 t-202 -26.5q-272 0 -439 120q-102 74 -166.5 202t-64.5 282z" />
<glyph unicode="D" horiz-adv-x="1456" d="M98 1153q0 31 1 88t1 86q227 6 502 6q295 0 461 -90q133 -74 219 -217t86 -305q0 -207 -84 -365.5t-217 -246.5q-158 -109 -446 -109h-240h-279v172l107 6q6 0 6 8l2 963zM563 205q0 -43 51 -43q145 0 246 90q66 59 98.5 167.5t32.5 219.5q0 160 -34.5 262.5 t-116.5 179.5q-88 86 -209 86q-43 0 -62 -8z" />
<glyph unicode="E" horiz-adv-x="1189" d="M100 0q0 29 1 86t1 86l107 6q8 0 8 8v963l-117 4q0 121 2 176h271h477q47 0 115.5 1t87.5 1q12 -180 18 -364q-193 -20 -199 -21l-32 156q-6 31 -41 35q-86 12 -215 12h-21v-387q31 0 90.5 1t87.5 3q23 0 27 39l12 76q23 1 53 0q58 0 140 -2q-2 -66 -2 -213 q-2 -74 -2 -201q-178 -6 -193 -6l-8 82q-6 43 -33 43q-115 4 -174 4v-363q0 -29 18.5 -37t88.5 -8q94 0 161 15q27 6 39 36l60 164q115 -16 200 -37q-55 -270 -75 -360q-104 2 -672 2h-281z" />
<glyph unicode="F" horiz-adv-x="1136" d="M98 1155q0 119 2 174h271q33 0 244.5 1t234.5 1q47 0 115.5 1t87.5 1q20 -254 26 -383q-47 -6 -200 -24l-39 176q-6 31 -41 35q-106 14 -219 14q-12 0 -17 -2l-2 -440q129 0 193 2q27 0 35 8t12 31l12 84q66 0 193 -5q-4 -139 -5 -219q0 -39 -1 -110.5t-1 -100.5 q-123 -4 -192 -4l-8 94q-4 23 -14.5 31t-34.5 8q-92 6 -189 7l-2 -353l221 -6q0 -119 -4 -176q-53 0 -189 1t-204 1q-49 0 -145.5 -1t-137.5 -1q0 119 2 174l105 4q8 0 8 8v965z" />
<glyph unicode="G" horiz-adv-x="1392" d="M88 612q0 377 307 598q201 141 512 142q203 0 305 -49q16 -221 23 -406q-111 -14 -217 -23l-45 218q-4 18 -10 24q-51 39 -125 39q-121 0 -211 -82q-70 -63 -111 -177t-41 -251q0 -250 113 -373q100 -117 254 -116q43 0 47 24v279l-160 4q0 29 1 90t1 90h328h270 q0 -123 -2 -180l-86 -4q-8 -4 -8 -8l-6 -398q-125 -74 -398 -73q-332 0 -514 141q-227 182 -227 491z" />
<glyph unicode="H" horiz-adv-x="1554" d="M100 0q0 29 1 88t1 88l105 6q8 0 8 8v959l-113 6q0 119 2 174h295h293q0 -119 -2 -174l-119 -6q-4 0 -4 -10l-2 -357q0 -6 4 -6l420 -2v375l-125 6q0 29 1 88.5t1 85.5h310h276q0 -121 -2 -174l-100 -6q-6 0 -7 -8l-6 -959l113 -6q-2 -29 -3 -88t-1 -88q-39 0 -138.5 1 t-142.5 1q-55 0 -162.5 -1t-152.5 -1q0 121 2 176l131 6q6 0 6 8v388q0 8 -6 8l-418 -4l-4 -400l129 -6q0 -119 -2 -176q-39 0 -142.5 1t-156.5 1q-45 0 -145.5 -1t-143.5 -1z" />
<glyph unicode="I" horiz-adv-x="780" d="M88 0q0 119 2 178l119 4q6 0 6 8v961l-125 6v174q41 0 151.5 -1t157.5 -1q53 0 159 1t144 1q0 -119 -2 -174l-127 -6q-4 0 -4 -10l-6 -959l137 -6q0 -119 -2 -176q-39 0 -146.5 1t-162.5 1q-45 0 -149.5 -1t-151.5 -1z" />
<glyph unicode="J" horiz-adv-x="1107" d="M33 369q55 14 203 45l65 -213q2 -10 18 -23q41 -29 103 -28q86 0 125 55q39 57 39 239q0 233 -4 709l-217 6q0 117 2 170h401h283q0 -117 -2 -170l-109 -6q-6 0 -6 -10q0 -504 -4 -645q-6 -260 -127 -383q-154 -164 -447 -164q-152 0 -264 24q-36 240 -59 394z" />
<glyph unicode="K" horiz-adv-x="1386" d="M100 0q0 119 2 176l105 6q6 0 6 8l2 961l-113 6q0 63 4 174q39 0 142.5 -1t150.5 -1q49 0 146.5 1t130.5 1q0 -119 -2 -174l-103 -6q-4 0 -4 -10l-2 -387q20 2 94 10q94 100 295 373q8 12 -8 12l-96 4q0 119 2 176h305q37 0 104.5 1t96.5 1q0 -29 -1 -88t-1 -86l-78 -6 q-209 -229 -367 -395v-15q106 -72 197 -270q74 -162 109 -223q29 -59 71 -62l103 -10q0 -66 -5 -172q-115 -4 -221 -4q-47 -2 -215 -2q-63 96 -145 313q-106 279 -168 279q-55 0 -74 -2l-2 -406l115 -6q0 -119 -4 -176q-35 0 -133.5 1t-149.5 1q-45 0 -145.5 -1t-143.5 -1z " />
<glyph unicode="L" horiz-adv-x="1138" d="M98 -2q0 119 2 174l105 4q10 0 10 8v967l-113 4q0 119 2 174h291h307q0 -63 -4 -174l-129 -6q-6 0 -6 -6l-4 -924q0 -31 13.5 -38t78.5 -7q96 0 164 14q25 6 37 39l70 211q106 -18 204 -41q-41 -201 -86 -399q-27 0 -261 1t-398 1q-49 0 -145.5 -1t-137.5 -1z" />
<glyph unicode="M" horiz-adv-x="1792" d="M84 0q0 119 2 172l104 6q8 0 9 8q0 170 4 524.5t4 428.5l-113 6q0 70 4 184h510q59 -154 293 -835h17q215 616 296 835h476q0 -66 -4 -184l-101 -6q-6 0 -6 -11q0 -336 4 -950l113 -6q0 -117 -2 -172h-246h-299q0 119 2 172l117 6q6 0 6 8q-4 459 -8 688h-17 q-131 -375 -315 -796q-61 -4 -178 -4q-154 365 -307 827h-19q-6 -262 -14 -723l143 -6q0 -117 -2 -172h-264h-209z" />
<glyph unicode="N" horiz-adv-x="1464" d="M70 1155q0 119 2 174h393q180 -258 588 -889h10q0 78 -1 223.5t-2 264.5t-3 223l-148 4q0 121 2 174h267q37 0 113.5 1t105.5 1q0 -117 -4 -174l-90 -6q-6 0 -7 -10l-10 -1121q-78 -39 -248 -38q-297 356 -602 809h-14q0 -104 -1 -305t-3 -304l151 -6q0 -61 -4 -176 q-41 0 -141 1t-152 1q-35 0 -100.5 -1t-91.5 -1q0 119 2 176l100 4q8 2 8 8l-2 963z" />
<glyph unicode="O" horiz-adv-x="1505" d="M88 653q0 193 85 350.5t218 237.5q176 111 412 111q199 0 356 -101q119 -76 189.5 -225t70.5 -328q0 -156 -54 -302t-157 -242q-188 -174 -489 -174h-2q-133 0 -250 45t-195 122q-184 189 -184 506zM475 676q0 -307 103 -430q74 -92 184 -92h2q111 0 174 82 q96 127 96 413q0 248 -84 410q-57 119 -182 119q-117 0 -188 -88q-105 -129 -105 -414z" />
<glyph unicode="P" horiz-adv-x="1245" d="M104 1155q0 119 2 174q295 4 498 4q186 0 301 -35q123 -39 199 -150.5t76 -244.5q0 -119 -68 -223.5t-174 -157.5q-63 -31 -149.5 -47t-137.5 -16q-82 0 -96 2l-2 -285l186 -6q0 -115 -2 -170h-368h-263q0 63 5 170l96 6q8 0 8 8v967zM555 653q0 -20 72 -20q82 0 139 53 q68 68 68 207q0 115 -60.5 194.5t-148.5 79.5q-53 0 -66 -6z" />
<glyph unicode="Q" horiz-adv-x="1505" d="M86 653v2q0 190 85 345t214 239q170 113 410 113q211 0 362 -99q119 -78 189.5 -226t70.5 -331q0 -168 -59.5 -310t-157.5 -232q-98 -88 -182 -119v-10q106 -68 223 -111q72 -29 184 -29q61 0 148 15q18 -102 20 -193q-197 -70 -319 -69q-74 0 -139 32q-180 92 -408 310 h-20q-123 0 -244 47t-203 131q-174 178 -174 495zM475 666q0 -168 24.5 -262.5t78.5 -159.5q80 -88 184 -88q115 0 172 80q98 131 98 403q0 276 -86 426q-61 113 -170 113q-115 0 -194 -82q-49 -55 -78 -171t-29 -257v-2z" />
<glyph unicode="R" horiz-adv-x="1302" d="M106 1155q2 59 3 174q283 4 473 4q180 0 301 -28q129 -29 211 -127.5t82 -202.5q0 -125 -71 -217t-185 -140v-10q41 -18 78.5 -67t60 -92t74.5 -154q12 -27 18 -39q31 -70 61 -72l99 -12v-170q-39 -2 -152 -2q-25 0 -131 -1t-125 -1q-43 74 -192 424q-37 88 -109 88 q-37 0 -49 -4l-2 -330l111 -6q0 -29 -1.5 -85t-1.5 -85h-292h-258v170l102 6q4 0 4 6l2 969zM553 680q8 -2 49 -2q102 0 161.5 63.5t59.5 165.5q0 111 -59 185.5t-141 74.5q-47 0 -66 -6z" />
<glyph unicode="S" horiz-adv-x="1101" d="M68 401q115 25 215 37l57 -202q4 -12 12 -19q51 -39 135 -39q94 0 142 41q49 39 49 110.5t-39 102.5t-170 80q-367 137 -367 403q0 180 140 306q143 131 434 131q190 0 274 -39q12 -115 29 -373q-47 -8 -209 -27l-47 191q-2 10 -8 14q-39 33 -105 33q-72 0 -121 -37 q-55 -43 -55 -116.5t42 -105.5t192 -83q174 -59 259 -151.5t85 -233.5q0 -207 -152 -328q-152 -117 -434 -116q-201 0 -313 40q-14 111 -45 381z" />
<glyph unicode="T" horiz-adv-x="1261" d="M23 915q16 279 24 416q18 0 87 -1t108 -1h401h383q80 2 195 2q16 -274 18 -413q-47 -6 -217 -21l-33 197q-6 31 -39 39q-45 10 -143 10l-4 -961l147 -6q0 -117 -2 -176q-41 0 -151.5 1t-165.5 1q-49 0 -160 -1t-162 -1q0 119 2 176l140 6q6 0 6 8v955q-70 0 -142 -10 q-33 -6 -39 -39l-38 -199q-27 2 -102.5 8t-112.5 10z" />
<glyph unicode="U" horiz-adv-x="1386" d="M63 1157q0 119 3 174q37 0 136 -1t146 -1q55 0 164 1t154 1q0 -119 -4 -174l-140 -4l-4 -618q-2 -190 74 -281q57 -66 164 -66q94 0 155 72q70 78 70 301q0 416 -4 584q0 4 -8 8l-144 4q0 29 1 88.5t1 85.5q37 0 131.5 -1t141.5 -1q45 0 127 1t116 1q0 -27 -1 -86t-1 -88 l-98 -6l-4 -557q-2 -326 -152 -475q-135 -139 -370 -139q-268 0 -408 126q-145 133 -145 422v613q0 12 -10 12z" />
<glyph unicode="V" horiz-adv-x="1366" d="M14 1157q0 29 1 87.5t1 84.5h277q63 0 193 1t184 1q0 -29 -1 -88t-1 -86l-140 -8q47 -217 84 -358q109 -408 121 -453h15q35 111 100 328q4 16 41 137t60.5 206t31.5 130q0 10 -6 10l-121 4q0 123 2 176h307q33 0 101.5 1t99.5 1q0 -117 -2 -174l-107 -6 q-150 -406 -192 -510q-25 -61 -117 -299t-143 -358q-20 -4 -287 -4q-172 465 -237 675q-14 45 -70.5 222.5t-83.5 267.5q0 4 -10 8z" />
<glyph unicode="W" horiz-adv-x="1845" d="M16 1155q0 119 2 174h258h373q0 -27 -1 -86t-1 -88l-145 -6q8 -90 39 -352q29 -209 57 -455h16q70 250 238 901q46 8 149 8q51 0 117 -2q133 -524 221 -905h19q49 303 59 373l25 170q23 170 33 252q4 10 -7 10l-133 4q0 121 2 174q47 0 156 1t164 1q31 0 96.5 1t93.5 1 q0 -121 -2 -176l-96 -6q-29 -109 -75 -284t-60 -230q-35 -135 -182 -651q-33 -4 -291 -4q-125 389 -217 727h-11q-104 -328 -241 -723q-39 -4 -289 -4q-88 358 -152 657q-70 328 -104 506q0 8 -10 8z" />
<glyph unicode="X" horiz-adv-x="1349" d="M-10 0q0 117 2 174l98 6q8 0 19 10q61 70 124.5 144t139.5 161t121 140v14q-53 68 -114 152t-136.5 191.5t-108.5 152.5q-6 6 -12 6l-105 4q0 121 2 174h277q66 0 190.5 1t174.5 1q0 -119 -3 -174l-112 -8q100 -164 180 -287h14q109 143 185 277q4 10 -6 10l-103 4 q0 123 2 176h309q33 0 98.5 1t94.5 1q0 -119 -2 -174l-94 -8q-178 -219 -371 -432v-12q51 -66 119.5 -159t152.5 -207t119 -161l98 -4q0 -117 -2 -174q-35 0 -129 1t-139 1q-63 0 -193 -1t-186 -1q0 121 2 174l113 6q16 4 8 13q-168 258 -194 292h-13q-123 -162 -215 -303 l121 -6q0 -119 -2 -176q-41 0 -149.5 1t-167.5 1q-33 0 -104.5 -1t-102.5 -1z" />
<glyph unicode="Y" horiz-adv-x="1275" d="M16 1157q0 119 2 172h258q63 0 188.5 1t172.5 1q0 -119 -2 -174l-123 -8q92 -223 197 -451h10q121 223 209 441q2 6 -6 10l-111 4q0 119 2 176h291q35 0 96.5 1t85.5 1q0 -119 -2 -176l-90 -6q-250 -430 -393 -649l-2 -318l151 -6q0 -61 -4 -176q-41 0 -151.5 1t-167.5 1 q-47 0 -156 -1t-160 -1q0 61 4 176l129 6q8 0 9 11v305q-61 102 -344 643q0 10 -11 10z" />
<glyph unicode="Z" horiz-adv-x="1239" d="M49 166q172 229 705 956l-4 8h-123q-166 0 -199 -12q-31 -10 -43 -47l-72 -205q-31 6 -104.5 20.5t-110.5 22.5q31 182 78 426q4 0 92 -2t125 -2l697 -2q33 -96 63 -233q-354 -477 -698 -887l4 -8q285 0 375 24q45 10 63 62l64 180q174 -35 219 -45q-53 -238 -99 -424 q-8 0 -96 1t-239 1h-312h-319q-29 62 -66 166z" />
<glyph unicode="[" horiz-adv-x="837" d="M248 -344v1784q90 2 257 7t243 7q4 -84 -3 -151l-206 -11q-18 0 -19 -20l-6 -1465l234 -10q0 -57 -5 -151q-327 8 -495 10z" />
<glyph unicode="\" horiz-adv-x="835" d="M12 1348q156 68 203 82q39 -94 145.5 -356.5t159.5 -389.5q287 -692 307 -739q-125 -61 -182 -82q-47 111 -161.5 383t-159.5 377q-154 367 -312 725z" />
<glyph unicode="]" horiz-adv-x="837" d="M86 -203l231 10v1465q0 18 -18 20l-205 11q-6 68 -2 151q164 -6 500 -14l-8 -1784q-172 -2 -494 -10q-4 47 -4 151z" />
<glyph unicode="^" d="M98 666q39 61 191.5 292.5t228.5 344.5q39 2 135 2q279 -430 412 -639q-41 -37 -143 -109q-195 276 -342 479q-143 -207 -338 -475q-109 76 -144 105z" />
<glyph unicode="_" horiz-adv-x="1024" d="M0 -150h1024v-110h-1024v110z" />
<glyph unicode="`" horiz-adv-x="921" d="M221 1266q59 76 135 153l310 -309q-41 -49 -97 -104q-258 197 -348 260z" />
<glyph unicode="a" horiz-adv-x="1069" d="M45 219q0 104 121 206.5t340 102.5h98q1 11 1 22q0 140 -126 140q-88 0 -258 -115q-43 51 -106 146q248 203 495 203q121 0 217.5 -90.5t96.5 -217.5q0 -242 -4 -417q0 -10 1 -13.5t9 -1.5l108 4v-168q-33 -12 -133 -26t-209 -14q-23 20 -78 90h-10q-180 -90 -299 -90 q-86 0 -175 73.5t-89 165.5zM371 254q0 -33 30.5 -55.5t63.5 -22.5q61 0 137 45q4 4 4 12v142q-12 2 -43 2q-94 0 -143 -35t-49 -86v-2z" />
<glyph unicode="b" horiz-adv-x="1140" d="M-12 1210q0 63 4 170q49 4 161.5 17.5t202.5 24t99 10.5q6 0 6 -7q0 -90 -4 -304t-4 -292l8 -2q141 66 192.5 81.5t116.5 15.5q123 0 217 -117t94 -262q0 -156 -55 -293q-49 -119 -164 -205q-94 -68 -272 -67q-115 0 -219 55l-72 -78q-20 4 -82.5 13.5t-103.5 15.5 q10 133 10 250v968zM453 233q0 -37 41 -58t84 -21q72 0 106 59q47 74 47 236v2q0 135 -33 190q-37 57 -88 57q-72 0 -155 -57q0 -61 -1 -201.5t-1 -206.5z" />
<glyph unicode="c" horiz-adv-x="903" d="M61 389v2q0 223 164 378t428 155q143 0 228 -50q0 -49 -37 -130.5t-68 -98.5q-4 2 -24.5 10.5t-40 16.5t-45 16t-53 13.5t-50.5 5.5q-76 0 -112 -64q-43 -72 -43 -209q0 -123 63 -196q41 -49 139.5 -49.5t235.5 55.5q31 -113 39 -164q-92 -49 -198.5 -74.5t-180.5 -25.5 q-193 0 -319 111.5t-126 297.5z" />
<glyph unicode="d" horiz-adv-x="1165" d="M61 393q0 238 158 408q53 59 132 91t151 32q92 0 176 -27l14 6q-2 74 -6 299l-154 4v172q51 4 169 17.5t213.5 25t103.5 11.5q6 0 6 -7q0 -158 -4 -594t-4 -628q0 -20 12 -21l105 6q2 -51 2 -168q-27 -10 -138.5 -25t-205.5 -15q-41 31 -74 92h-15q-195 -92 -276 -92 q-141 0 -240 98q-125 120 -125 315zM414 430q0 -123 41 -186q35 -53 92 -54q63 0 131 37q8 6 8 35v2q0 299 2 432q-57 29 -123 29q-70 0 -102 -53q-49 -78 -49 -242z" />
<glyph unicode="e" horiz-adv-x="1021" d="M61 401v2q0 221 144.5 371t372.5 150q182 0 278 -111q104 -125 105 -317q-2 -20 -49.5 -68.5t-61.5 -50.5q-55 -6 -447 -6q6 -86 56 -133q51 -49 151 -50q127 0 289 56q25 -82 39 -168q-88 -41 -205 -68.5t-192 -27.5q-215 0 -347.5 106t-132.5 315zM403 535q113 0 232 4 q18 0 18 22q0 80 -24 129q-27 61 -90 62h-2q-61 0 -97 -56q-39 -65 -37 -161z" />
<glyph unicode="f" horiz-adv-x="784" d="M33 709q0 70 4 180q51 0 121 4q12 4 12 16q0 133 25.5 206t95.5 145q154 156 352 155q133 0 223 -37q0 -57 -34.5 -133t-67.5 -96q-4 2 -27 11l-45 19q-23 9 -53.5 16t-50.5 7q-55 0 -66 -35q-14 -45 -14 -272q45 0 134 1t126 1q0 -102 -6 -190h-254q0 -72 -1 -262.5 t-1 -268.5l184 -6q0 -57 -4 -168h-350q-43 0 -137.5 -1t-132.5 -1q0 113 2 168l100 6q8 4 8 10q0 356 -2 525h-141z" />
<glyph unicode="g" horiz-adv-x="1101" d="M2 -285q0 33 43 64q47 33 109.5 70.5t85.5 54.5v12q-76 31 -116 70t-40 116q0 16 30.5 37t170.5 99v14q-86 39 -152.5 113.5t-66.5 183.5q0 162 139 268.5t338 106.5q127 0 200 -19q31 -6 45 -6q207 8 306 16q5 -51 5 -115q0 -33 -1 -69q-20 0 -80 -1t-86 -1l-4 -8 q43 -57 43 -148q0 -127 -92 -225q-124 -128 -372 -128q-19 0 -38 1q-45 -39 -45 -69.5t38 -40t167 -13.5q170 -4 237.5 -17t122.5 -52t75.5 -78t20.5 -113q0 -102 -71.5 -184t-200.5 -127q-147 -55 -350 -55q-217 0 -339 63t-122 180zM344 -264q0 -51 54.5 -80t131.5 -29 q109 0 172 39q57 35 58 105v2q0 41 -29 56t-121 21q-51 4 -121.5 10.5t-91.5 6.5q-53 -70 -53 -131zM399 578q0 -211 125 -211q119 0 119 223q0 90 -31 145q-25 43 -88 43q-55 0 -90 -53t-35 -145v-2z" />
<glyph unicode="h" horiz-adv-x="1222" d="M20 1206q0 29 1.5 87.5t1.5 84.5q49 4 161.5 17.5t202.5 25t98 11.5q6 0 7 -9q0 -94 -4.5 -308t-4.5 -294l11 -2q145 70 199.5 87.5t115.5 17.5q63 0 133 -50.5t109 -117.5q31 -55 30 -150q0 -6 -6 -430l105 -4q0 -117 -2 -170h-252q-106 0 -262 -4q0 115 2 170l71 6 q6 2 6 8v301q0 133 -18 166q-27 41 -80 41q-72 0 -160 -59q0 -205 -4 -455l94 -6q0 -115 -2 -168h-270q-43 0 -132 -1t-128 -1q0 117 2 170l98 4q6 2 7 10q0 158 1 513.5t1 504.5z" />
<glyph unicode="i" horiz-adv-x="653" d="M43 692q0 66 4 176q47 4 158.5 17.5t203 26t97.5 12.5q4 0 4 -6q-6 -670 -6 -742l112 -6v-168h-282q-45 0 -141.5 -1t-137.5 -1q0 115 2 168l109 6q8 0 8 8v506zM133 1223q0 68 53.5 119t132.5 51h3q84 0 132 -49.5t48 -116.5q0 -82 -55.5 -133.5t-135.5 -51.5 q-70 0 -124 52.5t-54 128.5z" />
<glyph unicode="j" horiz-adv-x="608" d="M-84 -371q150 74 188 146q62 113 62 372v17l-4 520l-154 4q0 29 2 89.5t2 86.5q37 4 161 19.5t219 28t102 12.5q4 0 4 -6q0 -117 -1 -384.5t-1 -386.5q0 -102 -11.5 -161.5t-46.5 -130.5q-57 -125 -142 -230.5t-177 -152.5q-51 0 -125 57t-78 100zM104 1229 q0 70 54.5 122t136.5 52h2q84 0 131 -50t47 -116q0 -84 -54 -136t-138 -52q-68 0 -123.5 52t-55.5 128z" />
<glyph unicode="k" horiz-adv-x="1169" d="M25 1204v170q459 57 464 58q4 0 5 -9q0 -219 -5 -858q2 0 43 2t64 4q92 86 141 146q6 8 -4 8l-76 4q0 117 2 170q45 0 144.5 1t142.5 1q55 2 176 2q0 -115 -2 -170l-76 -6q-184 -154 -225 -186v-13q92 -61 148 -192q45 -106 63 -141q12 -18 31 -19l104 -4q0 -117 -4 -170 q-43 0 -221 -2t-186 -2q-23 43 -88 240q-53 168 -101 168q-51 0 -78 -3q0 -33 -1 -114.5t-1 -114.5l74 -6q0 -113 -2 -166h-252q-43 0 -132 -1t-130 -1q0 115 2 168l100 6q8 0 9 8v1018z" />
<glyph unicode="l" horiz-adv-x="632" d="M12 1206q0 63 4 170q45 4 162 18.5t208 26t99 11.5q6 0 7 -9q0 -131 -3.5 -583.5t-5.5 -665.5l117 -4v-168h-285q-45 0 -142 -1t-138 -1v168l110 6q6 0 7 8v1016z" />
<glyph unicode="m" horiz-adv-x="1763" d="M53 696q0 59 4 166q41 4 142.5 19.5t184.5 28t87 12.5q6 0 6 -7q2 -8 8.5 -50t10.5 -64l6 -2q141 82 193.5 103.5t113.5 21.5q111 0 211 -133h10q147 86 201.5 107.5t114.5 21.5q119 0 210 -117q63 -82 64 -182q0 -49 -6 -443l106 -4q0 -59 -4 -174h-252h-252 q0 119 2 172l70 4q8 4 8 10v351q0 72 -14 100q-23 45 -78 45q-61 0 -143 -49q0 -66 -2 -228.5t-2 -226.5l82 -4q0 -29 -1 -87t-1 -87h-256h-220v172l76 6q6 0 6 10v369q0 63 -14 92q-16 37 -70 37q-63 0 -151 -59q-4 -242 -4 -449l84 -4q0 -117 -2 -174h-265h-251 q0 119 2 172l102 6q6 0 6 10v504z" />
<glyph unicode="n" horiz-adv-x="1247" d="M45 694q0 29 1 85.5t1 82.5q45 2 146.5 17.5t184.5 29t87 13.5t4 -7q6 -23 14.5 -63.5t14.5 -63.5l10 -2q147 90 206.5 114t131.5 24q61 0 119.5 -45t93.5 -105q47 -78 47 -182q0 -158 -8 -416l102 -6q0 -115 -2 -168h-264q-45 0 -133 -1t-123 -1q0 27 1 84t1 84l82 6 q8 0 8 8v277q0 145 -16 176q-25 43 -78 43q-76 0 -164 -70q-6 -362 -6 -432l88 -6q0 -115 -2 -168h-256q-43 0 -138.5 -1t-134.5 -1q0 27 1.5 84t1.5 84l100 6q8 0 8 8v506z" />
<glyph unicode="o" horiz-adv-x="1118" d="M61 426q0 254 197 399q131 98 332 99q160 0 280 -76q186 -119 187 -379q0 -131 -62.5 -240.5t-158.5 -171.5q-119 -78 -297 -77h-2q-211 0 -324 98q-152 129 -152 348zM420 459q0 -195 49 -264q33 -55 92 -56h2q59 0 90 47q47 68 47 277q0 152 -36 235q-31 63 -97 64 q-59 0 -92 -49q-55 -78 -55 -254z" />
<glyph unicode="p" horiz-adv-x="1171" d="M25 692q0 61 4 168q41 6 143 22.5t185 30t87.5 13.5t4.5 -4q4 -20 11 -57.5t11 -57.5l12 -2q156 82 203 100.5t113 18.5q127 0 220 -123q91 -120 91 -276q0 -140 -63 -281q-51 -119 -156 -199q-33 -25 -97.5 -45t-121.5 -20q-111 0 -180 28l-15 -4q2 -102 2 -311l166 -6 q0 -115 -2 -168q-221 0 -330 -2q-188 0 -270 -2q0 113 2 168l98 8q8 0 9 10l2 989zM483 236q0 -29 44 -50.5t81 -21.5q68 0 105 53q47 70 47 223v2q0 141 -33 191q-35 51 -80 51q-70 0 -160 -55q-4 -233 -4 -393z" />
<glyph unicode="q" horiz-adv-x="1138" d="M61 387q0 238 158 412q115 125 305 125q98 0 228 -45l110 73q86 -12 170 -34q-6 -57 -10 -220q-9 -654 -9 -914q0 -52 1 -89l110 -2q0 -86 -6 -170q-39 0 -133 -1t-143 -1q-31 0 -316 -6q0 115 4 170l152 10q8 0 8 10l4 352h-16q-166 -78 -256 -77q-135 0 -236 94 q-125 114 -125 313zM414 432q0 -127 43 -190q35 -53 90 -54q59 0 131 35q10 6 10 37v432q-57 33 -119 33h-2q-68 0 -102 -53q-51 -88 -51 -240z" />
<glyph unicode="r" horiz-adv-x="933" d="M53 700q0 66 4 168q39 4 139.5 18.5t182.5 26t86 11.5t4 -6q12 -172 18 -261l15 -2q92 174 144 222.5t132 48.5q72 0 148 -29q0 -68 -34 -168t-63 -127q-6 0 -29.5 6t-51 10.5t-50.5 4.5q-33 0 -57 -19q-53 -41 -106 -143q-31 -57 -31 -174q-2 -35 -2 -113l170 -6 q0 -59 -4 -166h-312q-45 0 -145 -1t-143 -1q0 115 2 166l96 6q8 0 8 8v516z" />
<glyph unicode="s" horiz-adv-x="915" d="M57 293q109 23 181 33l30 -117q4 -14 17 -23q51 -31 112 -30q55 0 80 10q45 23 45 67q0 39 -29.5 56.5t-134.5 46.5q-274 80 -274 272q0 86 52 153.5t124 102.5q119 59 293 60q176 0 246 -29q20 -172 28 -272q-31 -6 -97 -15.5t-87 -13.5l-31 108q-4 18 -14 23 q-31 23 -80 23q-53 0 -78 -17q-37 -25 -37 -69q0 -33 33 -49.5t160 -51.5q123 -35 185.5 -92t62.5 -172q0 -84 -48 -153.5t-132 -112.5q-109 -51 -304 -51q-162 0 -270 32q-10 82 -33 281z" />
<glyph unicode="t" horiz-adv-x="868" d="M27 709q0 88 6 174q20 2 66 6t67 4q14 0 14 16q0 6 15 170q47 23 122.5 50.5t128 44t56.5 16.5q6 0 6 -8q-2 -23 -4 -141.5t-2 -145.5q53 0 160.5 1t154.5 1q0 -111 -8 -192q-43 0 -151.5 1t-155.5 1q0 -4 -1 -23.5t-1 -58.5v-88v-250q0 -41 28.5 -66.5t65.5 -25.5 q104 0 223 30q12 -68 25 -172q-190 -74 -445 -73h-2q-88 0 -157 63q-45 39 -58.5 74t-13.5 86q0 68 1 151.5t1 85.5q0 25 1 143.5t1 125.5h-143z" />
<glyph unicode="u" horiz-adv-x="1165" d="M41 723q0 29 1 85t1 83q45 2 223 8t193 6q6 0 6 -8q-6 -430 -6 -473q0 -135 24 -174q27 -43 80 -43q63 0 123 43v467l-100 4q0 63 4 174q303 8 430 8q4 0 4 -8q-6 -651 -6 -698q0 -12 8 -13l115 4q0 -27 -1 -84t-1 -86q-18 -10 -131 -24t-205 -14q-45 33 -94 102h-11 q-121 -68 -173 -85t-117 -17q-92 0 -185.5 97t-93.5 191q0 80 1 233.5t1 217.5z" />
<glyph unicode="v" horiz-adv-x="1060" d="M6 727q0 29 1 89.5t3 86.5h248h289q0 -117 -2 -174l-88 -4q8 -43 51 -217q47 -168 70 -248h14q14 43 38.5 119t37.5 117q55 211 57 217q0 10 -8 10l-66 4q0 123 2 174h234q29 0 90 1t88 1q0 -61 -4 -172l-78 -6q-10 -25 -145 -344q-82 -186 -185 -399q-59 -2 -297 -2 q-104 281 -163 456q-25 72 -55 161l-40 120q0 6 -12 6z" />
<glyph unicode="w" horiz-adv-x="1519" d="M10 729q0 29 1 88.5t1 85.5h234h305q0 -117 -2 -176l-117 -4q2 -14 6 -51t9.5 -78t11.5 -84q27 -180 39 -252l14 -4q59 211 172 557q41 6 270 6q88 -342 142 -571h16q31 152 49 256q18 94 37 213q0 8 -8 8l-94 4q0 68 4 174h264q29 0 84 1t78 1q0 -61 -4 -172l-76 -4 q-53 -168 -115 -346q-47 -139 -139 -397q-127 -4 -303 -4q-92 313 -129 442h-12q-66 -176 -173 -438q-139 -4 -294 -4q-57 217 -103 405q-49 188 -82 330q-4 8 -14 8z" />
<glyph unicode="x" horiz-adv-x="1097" d="M6 0q0 117 2 170l74 6q12 0 24 8q70 68 259 240v16q-199 227 -244 277q-6 6 -15 6l-73 4q0 123 2 176h239h306q0 -119 -2 -174l-76 -4q98 -123 116 -141h17q37 37 106 131q4 8 -4 8l-55 4q0 29 1 88t1 86h217q29 0 88.5 1t83.5 1q0 -66 -4 -172l-63 -6q-27 -27 -118 -117 t-145 -137v-12q35 -39 121 -138.5t123 -142.5l86 -6q0 -117 -2 -172h-237h-306q0 29 1 87t1 85l60 4q16 4 8 12q-39 53 -104 123h-17q-31 -33 -112 -135l63 -4q-2 -29 -2 -86t-2 -86h-225h-193z" />
<glyph unicode="y" horiz-adv-x="1052" d="M10 727q0 70 4 176h242h293q0 -119 -2 -174l-94 -4q23 -76 65 -213q10 -35 23.5 -73t31 -86t27.5 -81h12q43 135 62 217q41 172 51 224q0 10 -8 10l-70 4q0 121 2 174h234q31 0 90 1t84 1q0 -66 -4 -172l-74 -6q-4 -10 -69.5 -177t-102.5 -257q-174 -424 -303 -627 q-102 -162 -158 -192q-51 0 -148.5 66.5t-97.5 105.5q80 45 148 108q115 104 151 197q-111 272 -170 428q-23 57 -47 120.5t-47.5 127t-34.5 92.5q-2 6 -12 6z" />
<glyph unicode="z" horiz-adv-x="1024" d="M35 154q59 66 549 567l-2 10h-211q-39 0 -54 -31l-59 -163q-106 16 -188 34q35 182 67 332h40q17 0 74.5 -1t110.5 -1q160 -2 535 -2q37 -113 55 -219q-29 -35 -106.5 -111.5t-150 -144.5t-159.5 -149.5t-102 -96.5l4 -8q14 0 219 4q57 4 72 37l68 162q80 -14 180 -43 q-29 -125 -82 -332q-4 0 -145.5 1t-223.5 1h-260h-180q-26 72 -51 154z" />
<glyph unicode="{" horiz-adv-x="837" d="M131 623q109 0 140.5 32.5t29.5 98.5q0 39 -26.5 150.5t-26.5 193.5q0 176 129 270t371 94q4 -82 -3 -145q-139 0 -182 -50t-43 -143q0 -74 20.5 -187.5t20.5 -160.5q0 -174 -190 -215v-16q80 -14 134 -72.5t54 -148.5q0 -59 -21.5 -181.5t-21.5 -210.5q0 -92 48 -138 t175 -46q4 -96 2 -145q-221 0 -358 90t-137 256q0 82 28.5 208t28.5 183q0 70 -30.5 102.5t-139.5 30.5q-2 48 -2 150z" />
<glyph unicode="|" d="M483 -512v2048h189v-2048h-189z" />
<glyph unicode="}" horiz-adv-x="837" d="M94 -252q125 0 175 47t50 137q0 88 -21.5 210t-21.5 182q0 90 55.5 148t135.5 73v16q-188 41 -191 209q0 53 21.5 168t24.5 186q-2 100 -43 146.5t-183 46.5q-6 63 -2 145q498 0 498 -364q2 -84 -27.5 -195.5t-29.5 -148.5q0 -33 5 -52.5t20 -40t52 -29.5t95 -9 q0 -102 -2 -150q-109 2 -141 -30.5t-32 -102.5q0 -55 29 -181t29 -210q0 -164 -137.5 -255t-358.5 -91q-4 49 0 145z" />
<glyph unicode="~" d="M123 319q2 145 75.5 242.5t178.5 97.5h2q90 0 221 -65q135 -66 178 -66q37 0 65.5 36t28.5 98h158q0 -147 -72.5 -243.5t-181.5 -96.5q-80 0 -227 69q-14 6 -53 25.5t-66 28t-53 8.5q-37 0 -65.5 -36t-30.5 -98q-41 -4 -158 0z" />
<glyph unicode="&#xa1;" horiz-adv-x="643" d="M121 -428q6 61 43 413.5t49 465.5q47 16 203 26q2 -16 22.5 -194.5t24.5 -206.5q61 -444 63 -453q-57 -14 -206.5 -33.5t-196.5 -19.5h-2v2zM141 760q0 70 50.5 117t125.5 47q70 0 119 -45t49 -115t-49 -118t-127 -48h-2q-74 0 -120 47t-46 115z" />
<glyph unicode="&#xa2;" d="M125 604v2q0 195 128 339.5t363 178.5v211q80 14 172 21q-2 -37 -3 -111t-1 -110h17q141 0 239 -50q0 -49 -28.5 -127.5t-59.5 -97.5q-125 66 -178 72q-8 -332 -10 -516q96 2 227 49q10 -31 43 -150q-131 -63 -266 -82q-4 -168 -4 -245q-27 -2 -81 -7.5t-81 -7.5 q0 160 2 246q-84 0 -161.5 20.5t-152.5 61.5t-120 120t-45 183zM440 655q0 -102 49 -166q37 -51 115 -73q0 74 2 249t4 267q-72 -14 -121 -92t-49 -183v-2z" />
<glyph unicode="&#xa3;" d="M27 -2q0 63 4 186l153 6q14 0 27 9q70 76 70 243q0 63 -9 111h-194q0 63 4 174h145q6 0 6 8q-33 127 -32 213q0 82 42 161t117 128q154 104 379 104h2q125 0 230 -36q20 -254 28 -367q-20 -2 -200 -25l-47 203q-6 20 -13 25q-20 10 -71 10q-53 0 -88 -43t-35 -152 q0 -51 28 -219q137 0 318 4q2 -68 -6 -190q-184 0 -285 2q0 -12 1 -38t1 -36q0 -156 -141 -274q-10 -8 -13.5 -12.5t2 -6.5t17.5 -2q287 0 328 17q29 6 41 45l67 200q100 -18 203 -45q-18 -92 -86 -403q-4 0 -229.5 1t-428.5 1q-51 0 -163.5 -1t-171.5 -1z" />
<glyph unicode="&#xa4;" d="M76 147q45 55 164 191q-115 98 -115 283q0 82 35 163.5t94 135.5q-27 33 -77 94t-75 90q49 49 127 115q86 -104 160 -199q82 47 215 47h2q117 0 185 -33q72 86 153 195q74 -55 129 -115q-59 -74 -145 -176q53 -47 83.5 -125t30.5 -158q0 -92 -35.5 -175t-99.5 -134 q18 -23 79 -92.5t89 -103.5q-84 -76 -127 -105q-6 6 -69.5 80t-106.5 121q-74 -41 -203 -41q-119 0 -192 35q-35 -37 -95.5 -104.5t-86.5 -96.5q-66 49 -119 108zM336 631q0 -131 82 -209q57 -53 162 -53q92 0 155 47q96 74 96 229q0 143 -100 217q-51 39 -141 39h-2 q-98 0 -158 -51q-94 -84 -94 -219z" />
<glyph unicode="&#xa5;" d="M23 1135q0 115 2 165h227q59 0 174 1.5t152 1.5q0 -115 -3 -168l-114 -9q74 -168 186 -413h15q113 240 182 401q4 12 -10 12l-103 4q0 115 2 170h254q31 0 84 1.5t70 1.5q0 -115 -2 -170l-70 -5q-168 -291 -278 -469q45 0 123.5 1.5t107.5 1.5q4 -80 -2 -144h-299v-100 h301q0 -88 -2 -133q-41 0 -143.5 -1t-155.5 -1l-2 -109l168 -6q0 -53 -4 -168q-39 0 -149.5 1t-166.5 1q-47 0 -154.5 -1t-156.5 -1q0 61 4 168l146 6q10 0 10 14v95q-47 0 -150.5 -1t-144.5 -1q0 55 4 137q41 0 138 -1t153 -1v104h-293q0 88 4 131h250q-193 330 -271 467 q-6 8 -22 12z" />
<glyph unicode="&#xa6;" d="M483 358h189v-716h-189v716zM483 666v716h189v-716h-189z" />
<glyph unicode="&#xa7;" horiz-adv-x="974" d="M33 -317q14 53 60 109t97 75q127 -109 240 -109q63 0 98 35t35 90q0 18 -4 33.5t-8 28t-17 25.5l-22 22q-8 8 -31.5 23.5t-38 23.5t-49.5 28.5t-55 32.5q-131 80 -194.5 163t-63.5 208q0 180 139 326q-68 80 -67 194q0 145 131 246q127 100 321 100q190 0 307 -92 q-8 -47 -50 -103.5t-95 -78.5q-39 37 -103.5 66.5t-115.5 29.5q-68 0 -101 -37q-33 -35 -32 -80q0 -29 8 -49t31.5 -39.5t42 -31t64.5 -37t75 -41.5q260 -154 260 -387v-2q0 -176 -125 -318q57 -61 57 -186q0 -160 -131 -270q-121 -102 -293 -103q-218 1 -370 105zM301 565 q0 -41 11.5 -71.5t43 -58t46 -37t59.5 -38.5q12 -8 49 -31.5t71.5 -45t57.5 -37.5q31 51 31 127q0 66 -38 109.5t-114 95.5q-14 10 -74.5 50t-95.5 68q-47 -55 -47 -129v-2z" />
<glyph unicode="&#xa8;" horiz-adv-x="921" d="M139 1171q0 47 36 84t93 37h2q55 0 89 -34.5t34 -81.5q0 -57 -34.5 -93t-94.5 -36q-51 0 -88 35.5t-37 88.5zM528 1176q0 47 34 81.5t91 34.5h2q57 0 92 -36.5t35 -84.5q0 -53 -37.5 -88.5t-87.5 -35.5q-59 0 -94 35t-35 94z" />
<glyph unicode="&#xa9;" horiz-adv-x="1550" d="M90 657q0 287 203 491t491 204h2q291 0 483.5 -193.5t192.5 -482.5t-202.5 -492.5t-491.5 -203.5q-293 0 -485.5 193t-192.5 484zM225 659.5q0 -243.5 155 -409.5t394.5 -166t396 172t156.5 415.5t-154.5 409.5t-394.5 166h-2q-238 0 -394.5 -172t-156.5 -415.5zM420 612 q0 211 160 338q119 90 286 90q111 0 160 -16q12 -123 18 -252q-12 -2 -129 -18l-28 125q0 12 -8 16q-16 14 -48 14q-61 0 -102 -41q-80 -80 -80 -221q0 -115 62 -172q49 -47 137 -47q98 0 182 33q16 -86 19 -117q-123 -59 -246 -59q-162 0 -250 67q-133 98 -133 260z" />
<glyph unicode="&#xaa;" horiz-adv-x="837" d="M47 772q0 84 89 164t249 80h82q4 125 -92 125q-86 0 -201 -90q-39 49 -80 112q188 156 379 156q88 0 164 -69.5t76 -166.5q0 -57 -1 -176t-1 -147q0 -12 6 -12l84 4q0 -88 -2 -129q-135 -31 -262 -31q-29 18 -58 67h-8q-115 -68 -221 -67q-70 0 -136.5 54t-66.5 126z M289 801q0 -25 24.5 -41.5t53.5 -16.5q66 0 98 33q4 4 4 10v113q-4 2 -31 2q-74 0 -111.5 -27.5t-37.5 -70.5v-2z" />
<glyph unicode="&#xab;" horiz-adv-x="991" d="M102 520q59 57 344 342q47 -35 97 -92q-41 -66 -195 -315q78 -129 195 -322q-25 -27 -99 -90q-41 41 -156.5 158.5t-181.5 181.5q-4 43 -4 137zM500 510q59 61 166.5 174t156.5 164q33 -25 92 -88q-31 -51 -91 -153.5t-91 -153.5q31 -51 93.5 -153.5t93.5 -154.5 q-29 -33 -91 -88q-57 57 -163.5 168t-161.5 166q-4 39 -4 119z" />
<glyph unicode="&#xac;" d="M121 410q0 25 2 87t4 95q127 0 440.5 3t448.5 5q10 0 10 -8q0 -92 -3 -293t-3 -270q-90 -6 -184 -6v385q-123 0 -369 1t-346 1z" />
<glyph unicode="&#xad;" horiz-adv-x="768" d="M76 406l6 184q201 0 301 2q125 0 309 4q0 -111 -8 -193h-313h-2q-39 0 -143.5 1.5t-149.5 1.5z" />
<glyph unicode="&#xae;" horiz-adv-x="1036" d="M88 922q0 178 126 304t310 126h2q184 0 303 -119t119 -301q0 -178 -126 -304t-308 -126q-188 0 -307 118t-119 302zM180 922q0 -147 93.5 -244.5t242.5 -97.5q147 0 242.5 101t95.5 249q0 150 -93 247t-241 97h-2q-150 0 -244 -100t-94 -252zM309 707v69l37 2v301h-37v72 q63 2 183 2q78 0 124 -12q47 -10 73 -40t26 -67q0 -82 -88 -119v-12q29 -12 75 -104q12 -20 23 -21l31 -2q0 -45 -2 -69h-154q-33 66 -61 139q-12 23 -43 22h-15v-90l37 -2v-69h-209zM481 938h15q39 0 62.5 19.5t23.5 54.5q0 70 -84 69h-17v-143z" />
<glyph unicode="&#xaf;" horiz-adv-x="921" d="M217 1221q332 4 490 4q4 -76 0 -150q-70 0 -237 1t-251 1q-6 60 -2 144z" />
<glyph unicode="&#xb0;" horiz-adv-x="788" d="M100 1067q0 111 85 192.5t210 81.5h2q131 0 211 -75.5t80 -194.5q0 -117 -86 -196.5t-209 -79.5q-125 0 -209 72.5t-84 199.5zM281 1067q0 -66 33.5 -104.5t82.5 -38.5q53 0 82 38.5t29 104.5q0 145 -111 145h-2q-49 0 -81.5 -42t-32.5 -103z" />
<glyph unicode="&#xb1;" d="M129 -4q0 102 6 188q123 0 454 -1t443 -1q0 -92 -6 -178zM133 549q0 96 6 182q78 0 353 4v305q123 8 194 9q-2 -43 -3 -149.5t-1 -160.5q59 0 182 1t172 3q0 -104 -6 -196h-350q0 -47 -1 -137.5t-1 -122.5q-115 -8 -186 -8v270h-359z" />
<glyph unicode="&#xb2;" horiz-adv-x="796" d="M82 920q115 72 176 122q186 154 186 265q0 43 -24 73q-18 25 -62 25q-41 0 -67 -21q-6 -4 -6 -12l-27 -121q-23 0 -147 13q2 86 10 231q115 45 272.5 45t227 -65.5t69.5 -161.5v-2q0 -150 -225 -299q-31 -23 -80 -45v-11q27 0 91.5 2.5t137 6.5t84.5 4q2 0 2 -2 q0 -63 -8 -162q-41 0 -203.5 1t-203.5 1h-170q-21 64 -33 113z" />
<glyph unicode="&#xb3;" horiz-adv-x="796" d="M94 1028q49 10 158 23l24 -115q2 -6 11 -12q16 -10 49 -11q57 0 84 21q33 29 33 67q0 106 -160 107h-72q-4 84 -2 123q135 -2 180 26.5t45 90.5q0 31 -20 51q-18 18 -62 18q-41 0 -67 -18q-6 -2 -6 -10l-23 -105q-102 8 -153 10q4 137 8 207q121 39 270 39q166 0 223 -45 q72 -57 72 -125q0 -129 -154 -170v-10q82 -12 126 -62.5t44 -109.5q0 -106 -96 -168q-88 -59 -282 -59q-129 0 -207 16q-13 80 -23 221z" />
<glyph unicode="&#xb4;" horiz-adv-x="921" d="M266 1112q45 43 100.5 95.5t120 115.5t101.5 98q66 -63 137 -155q-49 -35 -176 -125l-191 -135q-65 75 -92 106z" />
<glyph unicode="&#xb5;" horiz-adv-x="1165" d="M115 -508q6 276 6 774q0 236 4 559q63 33 162.5 56.5t163.5 23.5q6 0 6 -8q-4 -299 -4 -463q0 -141 26 -184q29 -45 84 -45q49 0 87 29.5t38 78.5v512q63 33 165.5 55.5t164.5 22.5q4 0 4 -8q0 -96 -2 -299t-2 -291q0 -117 41 -117q49 0 104 15q18 -102 23 -162 q-43 -25 -150.5 -43t-210.5 -18q-43 27 -108 116h-12q-113 -115 -197 -114q-47 0 -92 41l-10 -5q0 -66 4 -162t8 -188t4 -102q-45 -33 -149.5 -54.5t-157.5 -19.5z" />
<glyph unicode="&#x3bc;" horiz-adv-x="1165" d="M115 -508q6 276 6 774q0 236 4 559q63 33 162.5 56.5t163.5 23.5q6 0 6 -8q-4 -299 -4 -463q0 -141 26 -184q29 -45 84 -45q49 0 87 29.5t38 78.5v512q63 33 165.5 55.5t164.5 22.5q4 0 4 -8q0 -96 -2 -299t-2 -291q0 -117 41 -117q49 0 104 15q18 -102 23 -162 q-43 -25 -150.5 -43t-210.5 -18q-43 27 -108 116h-12q-113 -115 -197 -114q-47 0 -92 41l-10 -5q0 -66 4 -162t8 -188t4 -102q-45 -33 -149.5 -54.5t-157.5 -19.5z" />
<glyph unicode="&#xb6;" horiz-adv-x="1300" d="M86 813q0 162 83 274.5t202 169.5q139 76 481 76q78 0 220 -4t175 -4q2 -51 2 -174l-143 2l-8 -1454q-96 -27 -183 -35l-4 1493h-135l-6 -1466q-92 -23 -188 -33l-2 692h-43q-86 0 -183 45q-268 125 -268 418z" />
<glyph unicode="&#xb7;" horiz-adv-x="610" d="M127 530q0 70 49 121t131 51h2q78 0 124 -49t46 -118q0 -78 -50 -125.5t-130 -47.5q-68 0 -120 48t-52 120z" />
<glyph unicode="&#xb8;" horiz-adv-x="921" d="M283 -403q172 10 172 98q0 27 -23 53q-31 31 -102 25q-4 10 -12.5 35.5t-12.5 35.5l193 162h172l-172 -147q61 -10 102 -54.5t41 -105.5q0 -96 -89 -157.5t-257 -61.5q-8 51 -12 117z" />
<glyph unicode="&#xb9;" horiz-adv-x="796" d="M115 1423q63 16 170.5 49t182.5 55.5t87 22.5q2 0 2 -6q0 -86 -1 -301t-1 -313l168 -2q0 -82 -2 -121h-270h-318q0 80 2 121l184 2q4 0 5 6v391q-53 -6 -191 -24q-14 102 -18 120z" />
<glyph unicode="&#xba;" horiz-adv-x="854" d="M59 936q0 197 142 305q96 78 248 78q125 0 213 -62q133 -92 133 -286q0 -100 -42 -184.5t-110 -131.5q-90 -63 -229 -63h-2q-160 0 -244 82q-109 102 -109 262zM317 961q0 -145 37 -203q27 -41 74 -41h2q49 0 72 35q35 51 35 211q0 133 -29 184q-25 47 -74 47 q-47 0 -76 -37q-41 -65 -41 -196z" />
<glyph unicode="&#xbb;" horiz-adv-x="991" d="M74 145q127 205 188 308q-31 51 -91 153.5t-91 153.5q51 55 92 88q121 -127 324 -338q0 -45 -4 -119q-49 -49 -103.5 -104.5t-120 -123t-104.5 -106.5q-8 8 -42 40t-48 48zM449 133q70 111 196 320q-94 158 -194 317q35 37 98 92q117 -119 342 -344q0 -49 -4 -135 q-164 -168 -340 -340q-73 63 -98 90z" />
<glyph unicode="&#xbc;" horiz-adv-x="1824" d="M135 1217q63 16 171 48.5t182.5 55t86.5 22.5q2 0 3 -6q0 -86 -1.5 -302t-1.5 -312l168 -2q0 -82 -2 -121h-270h-317q0 80 2 121l184 2q4 0 4 6v391q-27 -2 -56.5 -6t-68.5 -10l-65 -10q-11 66 -19 123zM481 41q236 371 367 584q78 127 241.5 400t198.5 333 q92 -41 148 -82q-55 -90 -216 -351t-233 -378q-135 -217 -369 -584q-4 2 -56 31t-81 47zM1006 301q25 31 78 100.5t92 118.5q94 121 172 209q6 0 233 -6q0 -59 -1 -204.5t-1 -215.5h129q0 -84 -4 -129h-127v-72l86 -2q0 -68 -2 -100h-215h-223v98l151 4q6 0 6 7v57h-317 q-37 74 -57 135zM1192 317q-8 -14 6 -14h182l2 256h-14q-25 -35 -59.5 -79t-44.5 -60q-52 -72 -72 -103z" />
<glyph unicode="&#xbd;" horiz-adv-x="1824" d="M115 1217q63 16 170.5 48.5t182.5 55t87 22.5q2 0 2 -6q0 -86 -1 -302t-1 -312l168 -2q0 -82 -2 -121h-270h-318q0 80 2 121l184 2q4 0 5 6v391q-27 -2 -56.5 -6t-68.5 -10t-66 -10q-10 66 -18 123zM459 41q84 131 368 584q68 111 215.5 358.5t223.5 374.5 q86 -37 147 -82q-254 -412 -446 -729q-29 -47 -170.5 -269.5t-200.5 -314.5q-14 8 -62 35t-75 43zM1102 113q115 72 176 123q186 154 186 264q0 43 -24 73q-18 25 -62 25q-41 0 -67 -20q-6 -4 -6 -13l-27 -121q-23 0 -148 13q2 86 11 231q115 45 272.5 45t227 -65.5 t69.5 -161.5v-2q0 -150 -225 -299q-31 -23 -80 -45v-10q27 0 91.5 2t137 6t84.5 4q2 0 2 -2q0 -63 -8 -162q-41 0 -203.5 1t-203.5 1h-170q-21 64 -33 113z" />
<glyph unicode="&#xbe;" horiz-adv-x="1824" d="M166 823q55 10 158 23l24 -115q2 -6 10 -12q14 -10 50 -10q57 0 84 20q33 29 32 68q0 106 -159 106h-72q-4 84 -2 123q135 -2 180 26.5t45 88.5q0 31 -20 51q-18 18 -62 18q-41 0 -67 -18q-6 -4 -7 -10l-22 -103q-27 2 -78 5t-76 6q4 133 9 204q121 39 270 39 q166 0 223 -45q72 -57 72 -125q0 -127 -154 -168v-10q82 -12 126 -62.5t44 -109.5q0 -106 -96 -168q-88 -59 -283 -59q-129 0 -207 16q-12 80 -22 221zM461 41q236 371 366 584q78 127 242 400t199 333q92 -41 147 -82q-55 -90 -216 -351t-232 -378q-135 -217 -369 -584 q-4 2 -56 31t-81 47zM985 301q25 31 78 100.5t92 118.5q94 121 172 209q6 0 234 -6q0 -59 -1 -204.5t-1 -215.5h129q0 -84 -5 -129h-127v-72l86 -2q0 -68 -2 -100h-215h-223v98l152 4q6 0 6 7v57h-318q-37 74 -57 135zM1171 317q-8 -14 7 -14h182l2 256h-14q-25 -35 -60 -79 t-45 -60q-52 -72 -72 -103z" />
<glyph unicode="&#xbf;" horiz-adv-x="1003" d="M59 -129q0 139 89.5 236.5t271.5 189.5q33 18 33 39q0 51 -9 123q88 33 218 39q27 -39 52 -107.5t27 -124.5q-176 -119 -240.5 -191.5t-66.5 -174.5q0 -66 39 -106t92 -40q57 0 90 25q12 12 15 22l47 170q123 -10 213 -24q-12 -223 -23 -328q-61 -29 -178 -49.5 t-235 -20.5q-197 0 -316 84t-119 236v2zM385 766q0 66 51 112t127 46q66 0 116 -43t50 -109q0 -70 -50 -118t-128 -48h-2q-72 0 -118 45t-46 115z" />
<glyph unicode="&#xc0;" horiz-adv-x="1306" d="M-18 0q0 117 2 172l94 6q8 0 12 10q70 184 224.5 600t203.5 549q55 6 283 6q57 -172 195.5 -585.5t195.5 -579.5l104 -6q0 -115 -2 -172h-245h-330q0 117 2 174l100 4q10 4 8 12q-6 14 -20 63.5t-21 63.5q-6 10 -14 11l-381 -4q-4 -23 -17.5 -74t-17.5 -72l113 -6 q0 -115 -2 -172h-287h-200zM360 1636q66 111 115 176q133 -92 367 -260q-27 -51 -76 -118zM446 510q-4 -12 5 -12h286q-18 61 -65 220t-74 245h-12q-14 -47 -63.5 -210t-76.5 -243z" />
<glyph unicode="&#xc1;" horiz-adv-x="1306" d="M-18 0q0 117 2 172l94 6q8 0 12 10q70 184 224.5 600t203.5 549q55 6 283 6q57 -172 195.5 -585.5t195.5 -579.5l104 -6q0 -115 -2 -172h-245h-330q0 117 2 174l100 4q10 4 8 12q-6 14 -20 63.5t-21 63.5q-6 10 -14 11l-381 -4q-4 -23 -17.5 -74t-17.5 -72l113 -6 q0 -115 -2 -172h-287h-200zM446 510q-4 -12 5 -12h286q-18 61 -65 220t-74 245h-12q-14 -47 -63.5 -210t-76.5 -243zM449 1552q18 14 366 260q49 -66 115 -176l-404 -202q-44 63 -77 118z" />
<glyph unicode="&#xc2;" horiz-adv-x="1306" d="M-18 0q0 117 2 172l94 6q8 0 12 10q70 184 224.5 600t203.5 549q55 6 283 6q57 -172 195.5 -585.5t195.5 -579.5l104 -6q0 -115 -2 -172h-245h-330q0 117 2 174l100 4q10 4 8 12q-6 14 -20 63.5t-21 63.5q-6 10 -14 11l-381 -4q-4 -23 -17.5 -74t-17.5 -72l113 -6 q0 -115 -2 -172h-287h-200zM330 1546q145 113 291 234q29 2 92 2q31 -25 136 -110t157 -124q-31 -49 -86 -104q-37 23 -124 76t-128 77q-45 -27 -133.5 -79t-124.5 -72q-49 55 -80 100zM446 510q-4 -12 5 -12h286q-18 61 -65 220t-74 245h-12q-14 -47 -63.5 -210t-76.5 -243 z" />
<glyph unicode="&#xc3;" horiz-adv-x="1306" d="M-18 0q0 117 2 172l94 6q8 0 12 10q70 184 224.5 600t203.5 549q55 6 283 6q57 -172 195.5 -585.5t195.5 -579.5l104 -6q0 -115 -2 -172h-245h-330q0 117 2 174l100 4q10 4 8 12q-6 14 -20 63.5t-21 63.5q-6 10 -14 11l-381 -4q-4 -23 -17.5 -74t-17.5 -72l113 -6 q0 -115 -2 -172h-287h-200zM319 1468q4 109 60.5 188t140.5 79h2q53 0 152 -52q90 -49 120.5 -49t54 27t25.5 68q39 4 119 0q-6 -117 -56 -192t-146 -75q-51 0 -154 56q-80 45 -119 45q-31 0 -53.5 -26t-26.5 -69q-39 -4 -119 0zM446 510q-4 -12 5 -12h286q-18 61 -65 220 t-74 245h-12q-14 -47 -63.5 -210t-76.5 -243z" />
<glyph unicode="&#xc4;" horiz-adv-x="1306" d="M-18 0q0 117 2 172l94 6q8 0 12 10q70 184 224.5 600t203.5 549q55 6 283 6q57 -172 195.5 -585.5t195.5 -579.5l104 -6q0 -115 -2 -172h-245h-330q0 117 2 174l100 4q10 4 8 12q-6 14 -20 63.5t-21 63.5q-6 10 -14 11l-381 -4q-4 -23 -17.5 -74t-17.5 -72l113 -6 q0 -115 -2 -172h-287h-200zM324 1583q0 47 35.5 85t95.5 38h2q57 0 91 -36t34 -83q0 -59 -36 -94t-95 -35q-51 0 -89 36t-38 89zM446 510q-4 -12 5 -12h286q-18 61 -65 220t-74 245h-12q-14 -47 -63.5 -210t-76.5 -243zM748 1587q0 47 34.5 83t91.5 36h3q57 0 93 -38t36 -85 q0 -53 -38 -89t-89 -36q-59 0 -95 35t-36 94z" />
<glyph unicode="&#xc5;" horiz-adv-x="1306" d="M-18 0q0 117 2 172l94 6q8 0 12 10q70 184 224.5 600t203.5 549q55 6 283 6q57 -172 195.5 -585.5t195.5 -579.5l104 -6q0 -115 -2 -172h-245h-330q0 117 2 174l100 4q10 4 8 12q-6 14 -20 63.5t-21 63.5q-6 10 -14 11l-381 -4q-4 -23 -17.5 -74t-17.5 -72l113 -6 q0 -115 -2 -172h-287h-200zM399 1638q0 84 74 149.5t182 65.5h2q111 0 181.5 -59t70.5 -151.5t-74.5 -154t-181.5 -61.5q-109 0 -181.5 56.5t-72.5 154.5zM446 510q-4 -12 5 -12h286q-18 61 -65 220t-74 245h-12q-14 -47 -63.5 -210t-76.5 -243zM551 1638q0 -47 30.5 -76.5 t73.5 -29.5q47 0 74 29.5t27 79t-27 79t-72 29.5h-2q-43 0 -73.5 -33t-30.5 -78z" />
<glyph unicode="&#xc6;" horiz-adv-x="1855" d="M-25 0q0 115 2 172l113 10q8 0 14 11q8 14 271.5 469.5t382.5 656.5q8 10 18 10h287h469q49 0 116.5 1t86.5 1q16 -240 20 -364q-193 -20 -199 -21l-34 156q-6 31 -41 35q-86 12 -217 12h-19l-4 -444q98 4 178 6q25 0 31 39l12 75q70 2 193 -2q0 -33 -1 -104.5t-1 -108.5 t-1 -96t-1 -74q-90 -6 -193 -6l-8 58q-6 37 -31 36q-59 2 -178 2v-305q0 -31 18.5 -39t88.5 -8q100 0 161 15q27 6 39 38l45 129q115 -16 201 -36q-8 -39 -27.5 -152t-31.5 -174q-29 0 -268.5 1t-405.5 1q-51 0 -157.5 -1t-158.5 -1q0 29 1.5 88t1.5 86l141 4q8 0 8 10v310 q0 10 -14 10l-357 -6q-106 -213 -153 -320l131 -8q0 -115 -2 -172h-326h-201zM618 684q-6 -12 7 -12l272 2v483h-10q-111 -180 -269 -473z" />
<glyph unicode="&#xc7;" horiz-adv-x="1251" d="M88 584q0 387 285 606q203 164 501 164q188 0 271 -31q18 -186 33 -418q-76 -14 -217 -28l-48 213q-4 18 -14 24q-33 27 -94 27q-117 0 -195 -84q-141 -145 -141 -403.5t119 -364.5q90 -84 239 -84q68 0 171.5 16.5t148.5 32.5q18 -80 35 -193q-119 -45 -281 -69 l-153 -142q164 -16 163 -155q0 -96 -99 -164t-265 -68q-10 41 -19 115q182 8 183 98q0 41 -29 60q-35 25 -107 24l-28 72l170 150h-21q-94 0 -197.5 31.5t-179.5 86.5q-102 74 -166.5 202t-64.5 282z" />
<glyph unicode="&#xc8;" horiz-adv-x="1189" d="M100 0q0 29 1 86t1 86l107 6q8 0 8 8v963l-117 4q0 121 2 176h271h477q47 0 115.5 1t87.5 1q12 -180 18 -364q-193 -20 -199 -21l-32 156q-6 31 -41 35q-86 12 -215 12h-21v-387q31 0 90.5 1t87.5 3q23 0 27 39l12 76q70 2 193 -2q-2 -66 -2 -213q-2 -74 -2 -201 q-178 -6 -193 -6l-8 82q-6 43 -33 43q-115 4 -174 4v-363q0 -29 18.5 -37t88.5 -8q94 0 161 15q27 6 39 36l60 164q115 -16 200 -37q-55 -270 -75 -360q-104 2 -672 2h-281zM336 1636q66 111 115 176q133 -92 366 -260q-27 -51 -76 -118z" />
<glyph unicode="&#xc9;" horiz-adv-x="1189" d="M100 0q0 29 1 86t1 86l107 6q8 0 8 8v963l-117 4q0 121 2 176h271h477q47 0 115.5 1t87.5 1q12 -180 18 -364q-193 -20 -199 -21l-32 156q-6 31 -41 35q-86 12 -215 12h-21v-387q31 0 90.5 1t87.5 3q23 0 27 39l12 76q70 2 193 -2q-2 -66 -2 -213q-2 -74 -2 -201 q-178 -6 -193 -6l-8 82q-6 43 -33 43q-115 4 -174 4v-363q0 -29 18.5 -37t88.5 -8q94 0 161 15q27 6 39 36l60 164q115 -16 200 -37q-55 -270 -75 -360q-104 2 -672 2h-281zM424 1552q18 14 367 260q49 -66 114 -176q-274 -137 -403 -202q-45 63 -78 118z" />
<glyph unicode="&#xca;" horiz-adv-x="1189" d="M100 0q0 29 1 86t1 86l107 6q8 0 8 8v963l-117 4q0 121 2 176h271h477q47 0 115.5 1t87.5 1q12 -180 18 -364q-193 -20 -199 -21l-32 156q-6 31 -41 35q-86 12 -215 12h-21v-387q31 0 90.5 1t87.5 3q23 0 27 39l12 76q70 2 193 -2q-2 -66 -2 -213q-2 -74 -2 -201 q-178 -6 -193 -6l-8 82q-6 43 -33 43q-115 4 -174 4v-363q0 -29 18.5 -37t88.5 -8q94 0 161 15q27 6 39 36l60 164q115 -16 200 -37q-55 -270 -75 -360q-104 2 -672 2h-281zM264 1546q145 113 291 234q29 2 92 2q31 -25 136.5 -110t156.5 -124q-31 -49 -86 -104 q-37 23 -124 76t-128 77q-45 -27 -133 -79t-125 -72q-49 55 -80 100z" />
<glyph unicode="&#xcb;" horiz-adv-x="1189" d="M100 0q0 29 1 86t1 86l107 6q8 0 8 8v963l-117 4q0 121 2 176h271h477q47 0 115.5 1t87.5 1q12 -180 18 -364q-193 -20 -199 -21l-32 156q-6 31 -41 35q-86 12 -215 12h-21v-387q31 0 90.5 1t87.5 3q23 0 27 39l12 76q70 2 193 -2q-2 -66 -2 -213q-2 -74 -2 -201 q-178 -6 -193 -6l-8 82q-6 43 -33 43q-115 4 -174 4v-363q0 -29 18.5 -37t88.5 -8q94 0 161 15q27 6 39 36l60 164q115 -16 200 -37q-55 -270 -75 -360q-104 2 -672 2h-281zM252 1583q0 47 36 85t95 38h2q57 0 91 -36t34 -83q0 -59 -36 -94t-95 -35q-51 0 -89 36t-38 89z M676 1587q0 47 34.5 83t92.5 36h2q57 0 93 -38t36 -85q0 -53 -38 -89t-89 -36q-59 0 -95 35t-36 94z" />
<glyph unicode="&#xcc;" horiz-adv-x="780" d="M88 0q0 119 2 178l119 4q6 0 6 8v961l-125 6v174q41 0 151.5 -1t157.5 -1q53 0 159 1t144 1q0 -119 -2 -174l-127 -6q-4 0 -4 -10l-6 -959l137 -6q0 -119 -2 -176q-39 0 -146.5 1t-162.5 1q-45 0 -149.5 -1t-151.5 -1zM92 1636q66 111 115 176q133 -92 366 -260 q-27 -51 -75 -118z" />
<glyph unicode="&#xcd;" horiz-adv-x="780" d="M88 0q0 119 2 178l119 4q6 0 6 8v961l-125 6v174q41 0 151.5 -1t157.5 -1q53 0 159 1t144 1q0 -119 -2 -174l-127 -6q-4 0 -4 -10l-6 -959l137 -6q0 -119 -2 -176q-39 0 -146.5 1t-162.5 1q-45 0 -149.5 -1t-151.5 -1zM219 1552q18 14 367 260q49 -66 114 -176 q-274 -137 -403 -202q-45 63 -78 118z" />
<glyph unicode="&#xce;" horiz-adv-x="780" d="M68 1546q145 113 290 234q29 2 93 2q31 -25 136 -110t156 -124q-31 -49 -86 -104q-37 23 -124 76t-127 77q-45 -27 -133.5 -79t-125.5 -72q-48 55 -79 100zM88 0q0 119 2 178l119 4q6 0 6 8v961l-125 6v174q41 0 151.5 -1t157.5 -1q53 0 159 1t144 1q0 -119 -2 -174 l-127 -6q-4 0 -4 -10l-6 -959l137 -6q0 -119 -2 -176q-39 0 -146.5 1t-162.5 1q-45 0 -149.5 -1t-151.5 -1z" />
<glyph unicode="&#xcf;" horiz-adv-x="780" d="M63 1583q0 47 36 85t96 38h2q57 0 91 -36t34 -83q0 -59 -36 -94t-96 -35q-51 0 -89 36t-38 89zM88 0q0 119 2 178l119 4q6 0 6 8v961l-125 6v174q41 0 151.5 -1t157.5 -1q53 0 159 1t144 1q0 -119 -2 -174l-127 -6q-4 0 -4 -10l-6 -959l137 -6q0 -119 -2 -176 q-39 0 -146.5 1t-162.5 1q-45 0 -149.5 -1t-151.5 -1zM487 1587q0 47 35 83t92 36h2q57 0 93 -38t36 -85q0 -53 -37.5 -89t-89.5 -36q-59 0 -95 35t-36 94z" />
<glyph unicode="&#xd0;" horiz-adv-x="1495" d="M106 565q0 20 1.5 59.5t2.5 70t3 57.5q47 2 141 2l2 395l-119 4q0 117 2 174q227 6 498 6q315 0 485 -100q119 -70 202 -212t83 -298q0 -412 -301 -614q-150 -109 -451 -109h-235h-281q0 117 2 172l105 6q8 0 8 8v379h-148zM600 203q0 -41 49 -41q158 0 252 90 q131 129 131 385q0 158 -33.5 257t-107.5 177q-94 96 -223 96q-39 0 -62 -8l-4 -403q94 0 250 4q0 -94 -10 -197h-240z" />
<glyph unicode="&#xd1;" horiz-adv-x="1464" d="M70 1155q0 119 2 174h393q180 -258 588 -889h10q0 78 -1 223.5t-2 264.5t-3 223l-148 4q0 121 2 174h267q37 0 113.5 1t105.5 1q0 -117 -4 -174l-90 -6q-6 0 -7 -10l-10 -1121q-78 -39 -248 -38q-297 356 -602 809h-14q0 -104 -1 -305t-3 -304l151 -6q0 -61 -4 -176 q-41 0 -141 1t-152 1q-35 0 -100.5 -1t-91.5 -1q0 119 2 176l100 4q8 2 8 8l-2 963zM430 1468q4 109 60.5 188t140.5 79h2q53 0 151 -52q90 -49 121 -49t54.5 27t25.5 68q39 4 119 0q-6 -117 -56.5 -192t-146.5 -75q-51 0 -153 56q-80 45 -119 45q-31 0 -53.5 -26t-26.5 -69 q-39 -4 -119 0z" />
<glyph unicode="&#xd2;" horiz-adv-x="1505" d="M88 653q0 193 85 350.5t218 237.5q176 111 412 111q199 0 356 -101q119 -76 189.5 -225t70.5 -328q0 -156 -54 -302t-157 -242q-188 -174 -489 -174h-2q-133 0 -250 45t-195 122q-184 189 -184 506zM475 676q0 -307 103 -430q74 -92 184 -92h2q111 0 174 82 q96 127 96 413q0 248 -84 410q-57 119 -182 119q-117 0 -188 -88q-105 -129 -105 -414zM500 1636q66 111 114 176q133 -92 367 -260q-27 -51 -76 -118z" />
<glyph unicode="&#xd3;" horiz-adv-x="1505" d="M88 653q0 193 85 350.5t218 237.5q176 111 412 111q199 0 356 -101q119 -76 189.5 -225t70.5 -328q0 -156 -54 -302t-157 -242q-188 -174 -489 -174h-2q-133 0 -250 45t-195 122q-184 189 -184 506zM475 676q0 -307 103 -430q74 -92 184 -92h2q111 0 174 82 q96 127 96 413q0 248 -84 410q-57 119 -182 119q-117 0 -188 -88q-105 -129 -105 -414zM616 1552q18 14 367 260q49 -66 115 -176l-404 -202q-45 63 -78 118z" />
<glyph unicode="&#xd4;" horiz-adv-x="1505" d="M88 653q0 193 85 350.5t218 237.5q176 111 412 111q199 0 356 -101q119 -76 189.5 -225t70.5 -328q0 -156 -54 -302t-157 -242q-188 -174 -489 -174h-2q-133 0 -250 45t-195 122q-184 189 -184 506zM451 1546q143 113 290 234q29 2 93 2q31 -25 136 -110t156 -124 q-31 -49 -86 -104q-37 23 -124 76t-128 77q-45 -27 -133 -79t-125 -72q-48 55 -79 100zM475 676q0 -307 103 -430q74 -92 184 -92h2q111 0 174 82q96 127 96 413q0 248 -84 410q-57 119 -182 119q-117 0 -188 -88q-105 -129 -105 -414z" />
<glyph unicode="&#xd5;" horiz-adv-x="1505" d="M88 653q0 193 85 350.5t218 237.5q176 111 412 111q199 0 356 -101q119 -76 189.5 -225t70.5 -328q0 -156 -54 -302t-157 -242q-188 -174 -489 -174h-2q-133 0 -250 45t-195 122q-184 189 -184 506zM449 1468q4 109 60 188t140 79h2q53 0 152 -52q90 -49 120.5 -49t54 27 t26.5 68q39 4 118 0q-6 -117 -56 -192t-146 -75q-51 0 -154 56q-80 45 -119 45q-31 0 -53.5 -26t-26.5 -69q-38 -4 -118 0zM475 676q0 -307 103 -430q74 -92 184 -92h2q111 0 174 82q96 127 96 413q0 248 -84 410q-57 119 -182 119q-117 0 -188 -88q-105 -129 -105 -414z " />
<glyph unicode="&#xd6;" horiz-adv-x="1505" d="M88 653q0 193 85 350.5t218 237.5q176 111 412 111q199 0 356 -101q119 -76 189.5 -225t70.5 -328q0 -156 -54 -302t-157 -242q-188 -174 -489 -174h-2q-133 0 -250 45t-195 122q-184 189 -184 506zM446 1583q0 47 36 85t96 38h2q57 0 91 -36t34 -83q0 -59 -36 -94 t-96 -35q-51 0 -89 36t-38 89zM475 676q0 -307 103 -430q74 -92 184 -92h2q111 0 174 82q96 127 96 413q0 248 -84 410q-57 119 -182 119q-117 0 -188 -88q-105 -129 -105 -414zM870 1587q0 47 35 83t92 36h2q57 0 93 -38t36 -85q0 -53 -37.5 -89t-89.5 -36q-59 0 -95 35 t-36 94z" />
<glyph unicode="&#xd7;" d="M113 145q43 45 155.5 163t173.5 181q-57 57 -157.5 159t-134.5 136q35 39 143 144q51 -53 282 -299q45 47 147.5 153.5t145.5 153.5q90 -78 146 -141l-305 -306q242 -254 325 -344q-49 -55 -127 -125q-176 180 -332 336l-335 -336q-78 70 -127 125z" />
<glyph unicode="&#xd8;" horiz-adv-x="1505" d="M43 14q27 31 57.5 63t66.5 69.5t56 60.5q-137 166 -137 452q0 188 85 343t218 239q178 111 416 111h2q186 0 348 -99q23 25 69 76t68 78q59 -43 146 -133q-98 -102 -146 -156q57 -76 93 -190.5t36 -227.5q0 -156 -56 -303t-159 -243q-182 -174 -487 -174q-215 0 -371 104 q-123 -127 -180 -186q-45 36 -125 116zM451 627q0 -119 8 -185q141 166 239 275q129 145 281 321q-25 57 -79 98.5t-126 41.5h-2q-125 0 -197 -86q-124 -148 -124 -465zM532 291q33 -57 96.5 -97t131.5 -40h2q119 0 186 84q111 139 111 438q0 127 -10 190 q-162 -190 -248 -286q-70 -74 -269 -289z" />
<glyph unicode="&#xd9;" horiz-adv-x="1386" d="M63 1157q0 119 3 174q37 0 136 -1t146 -1q55 0 164 1t154 1q0 -119 -4 -174l-140 -4l-4 -618q-2 -190 74 -281q57 -66 164 -66q94 0 155 72q70 78 70 301q0 416 -4 584q0 4 -8 8l-144 4q0 29 1 88.5t1 85.5q37 0 131.5 -1t141.5 -1q45 0 127 1t116 1q0 -27 -1 -86t-1 -88 l-98 -6l-4 -557q-2 -326 -152 -475q-135 -139 -370 -139q-268 0 -408 126q-145 133 -145 422v613q0 12 -10 12zM479 1636q66 111 115 176q133 -92 367 -260q-27 -51 -76 -118z" />
<glyph unicode="&#xda;" horiz-adv-x="1386" d="M63 1157q0 119 3 174q37 0 136 -1t146 -1q55 0 164 1t154 1q0 -119 -4 -174l-140 -4l-4 -618q-2 -190 74 -281q57 -66 164 -66q94 0 155 72q70 78 70 301q0 416 -4 584q0 4 -8 8l-144 4q0 29 1 88.5t1 85.5q37 0 131.5 -1t141.5 -1q45 0 127 1t116 1q0 -27 -1 -86t-1 -88 l-98 -6l-4 -557q-2 -326 -152 -475q-135 -139 -370 -139q-268 0 -408 126q-145 133 -145 422v613q0 12 -10 12zM557 1552q18 14 367 260q49 -66 114 -176q-274 -137 -403 -202q-45 63 -78 118z" />
<glyph unicode="&#xdb;" horiz-adv-x="1386" d="M63 1157q0 119 3 174q37 0 136 -1t146 -1q55 0 164 1t154 1q0 -119 -4 -174l-140 -4l-4 -618q-2 -190 74 -281q57 -66 164 -66q94 0 155 72q70 78 70 301q0 416 -4 584q0 4 -8 8l-144 4q0 29 1 88.5t1 85.5q37 0 131.5 -1t141.5 -1q45 0 127 1t116 1q0 -27 -1 -86t-1 -88 l-98 -6l-4 -557q-2 -326 -152 -475q-135 -139 -370 -139q-268 0 -408 126q-145 133 -145 422v613q0 12 -10 12zM412 1546q145 113 290 234q29 2 93 2q31 -25 136 -110t156 -124q-31 -49 -86 -104q-37 23 -123.5 76t-127.5 77q-45 -27 -133.5 -79t-124.5 -72q-49 55 -80 100z " />
<glyph unicode="&#xdc;" horiz-adv-x="1386" d="M63 1157q0 119 3 174q37 0 136 -1t146 -1q55 0 164 1t154 1q0 -119 -4 -174l-140 -4l-4 -618q-2 -190 74 -281q57 -66 164 -66q94 0 155 72q70 78 70 301q0 416 -4 584q0 4 -8 8l-144 4q0 29 1 88.5t1 85.5q37 0 131.5 -1t141.5 -1q45 0 127 1t116 1q0 -27 -1 -86t-1 -88 l-98 -6l-4 -557q-2 -326 -152 -475q-135 -139 -370 -139q-268 0 -408 126q-145 133 -145 422v613q0 12 -10 12zM408 1583q0 47 35.5 85t95.5 38h2q57 0 91 -36t34 -83q0 -59 -36 -94t-95 -35q-51 0 -89 36t-38 89zM831 1587q0 47 35 83t92 36h3q57 0 93 -38t36 -85 q0 -53 -38 -89t-89 -36q-59 0 -95.5 35t-36.5 94z" />
<glyph unicode="&#xdd;" horiz-adv-x="1275" d="M16 1157q0 119 2 172h258q63 0 188.5 1t172.5 1q0 -119 -2 -174l-123 -8q92 -223 197 -451h10q121 223 209 441q2 6 -6 10l-111 4q0 119 2 176h291q35 0 96.5 1t85.5 1q0 -119 -2 -176l-90 -6q-250 -430 -393 -649l-2 -318l151 -6q0 -61 -4 -176q-41 0 -151.5 1t-167.5 1 q-47 0 -156 -1t-160 -1q0 61 4 176l129 6q8 0 9 11v305q-61 102 -344 643q0 10 -11 10zM541 1552q18 14 366 260q49 -66 115 -176l-404 -202q-44 63 -77 118z" />
<glyph unicode="&#xde;" horiz-adv-x="1277" d="M104 0q0 29 1 86t1 84l101 6q8 0 8 8l2 967l-113 6q0 117 2 172h318h278q0 -111 -2 -162l-135 -6q-8 0 -8 -8v-92h84q188 0 295 -31q125 -35 199.5 -126t74.5 -208q0 -121 -67.5 -216t-175.5 -144q-131 -57 -324 -57h-92v-105l168 -6q0 -113 -2 -168h-348h-265zM553 469 q0 -16 72 -16q106 0 166 45q68 55 67 182q-2 90 -61.5 150.5t-155.5 60.5q-55 0 -86 -6z" />
<glyph unicode="&#xdf;" horiz-adv-x="1409" d="M35 709q0 31 1 92t1 88l123 4q12 0 12 16q2 143 47 233.5t154 157.5q188 117 399 117q158 0 264 -88q135 -113 115 -340q-8 -6 -60.5 -42t-76.5 -56q-66 -57 -66 -113q2 -39 31 -61.5t111 -57.5q14 -4 20 -8q131 -47 186.5 -118.5t55.5 -176.5q0 -197 -164 -303 q-115 -74 -316 -73q-104 0 -206 22q-6 43 -35 281q96 23 168 32l32 -118q2 -10 17 -21q33 -18 72 -18q41 0 71 22q39 29 39 90q0 49 -28.5 76t-139.5 72q-197 80 -196 268q0 23 5 43.5t11 35.5t20 36l22 30q7 10 24.5 31t23.5 27q10 12 24.5 28.5t24.5 28.5t19 25 q10 137 -66 205q-53 43 -115 43q-68 0 -106 -41q-27 -29 -36 -84.5t-11 -188.5q0 -98 -1 -362t-1 -369l31 -4q0 -111 -3 -168h-196q-43 0 -136.5 -1t-131.5 -1q0 113 2 168l100 6q8 0 8 10q0 354 -2 525h-141z" />
<glyph unicode="&#xe0;" horiz-adv-x="1069" d="M45 219q0 104 121 206.5t340 102.5h98q10 162 -125 162q-88 0 -258 -115q-43 51 -106 146q248 203 495 203q121 0 217.5 -90.5t96.5 -217.5q0 -242 -4 -417q0 -10 1 -13.5t9 -1.5l108 4v-168q-33 -12 -133 -26t-209 -14q-23 20 -78 90h-10q-180 -90 -299 -90 q-86 0 -175 73.5t-89 165.5zM291 1266q59 76 135 153l309 -309q-41 -49 -96 -104q-258 197 -348 260zM371 254q0 -33 30.5 -55.5t63.5 -22.5q61 0 137 45q4 4 4 12v142q-12 2 -43 2q-94 0 -143 -35t-49 -86v-2z" />
<glyph unicode="&#xe1;" horiz-adv-x="1069" d="M45 219q0 104 121 206.5t340 102.5h98q10 162 -125 162q-88 0 -258 -115q-43 51 -106 146q248 203 495 203q121 0 217.5 -90.5t96.5 -217.5q0 -242 -4 -417q0 -10 1 -13.5t9 -1.5l108 4v-168q-33 -12 -133 -26t-209 -14q-23 20 -78 90h-10q-180 -90 -299 -90 q-86 0 -175 73.5t-89 165.5zM371 254q0 -33 30.5 -55.5t63.5 -22.5q61 0 137 45q4 4 4 12v142q-12 2 -43 2q-94 0 -143 -35t-49 -86v-2zM422 1112q45 43 100.5 95.5t120 115.5t100.5 98q66 -63 138 -155q-49 -35 -176 -125l-191 -135q-65 75 -92 106z" />
<glyph unicode="&#xe2;" horiz-adv-x="1069" d="M45 219q0 104 121 206.5t340 102.5h98q10 162 -125 162q-88 0 -258 -115q-43 51 -106 146q248 203 495 203q121 0 217.5 -90.5t96.5 -217.5q0 -242 -4 -417q0 -10 1 -13.5t9 -1.5l108 4v-168q-33 -12 -133 -26t-209 -14q-23 20 -78 90h-10q-180 -90 -299 -90 q-86 0 -175 73.5t-89 165.5zM252 1098q35 39 248 286q41 2 131 2q41 -45 132 -152.5t118 -137.5q-49 -53 -97 -88q-20 18 -64 58t-83 75t-72 65q-55 -51 -211 -196q-57 43 -102 88zM371 254q0 -33 30.5 -55.5t63.5 -22.5q61 0 137 45q4 4 4 12v142q-12 2 -43 2 q-94 0 -143 -35t-49 -86v-2z" />
<glyph unicode="&#xe3;" horiz-adv-x="1069" d="M45 219q0 104 121 206.5t340 102.5h98q10 162 -125 162q-88 0 -258 -115q-43 51 -106 146q248 203 495 203q121 0 217.5 -90.5t96.5 -217.5q0 -242 -4 -417q0 -10 1 -13.5t9 -1.5l108 4v-168q-33 -12 -133 -26t-209 -14q-23 20 -78 90h-10q-180 -90 -299 -90 q-86 0 -175 73.5t-89 165.5zM217 1047q12 121 60.5 194.5t134.5 73.5h2q14 0 30.5 -4t26.5 -7.5t28.5 -13.5t23.5 -13t26.5 -18.5t23.5 -15.5q72 -43 107 -43q59 0 74 103q61 4 114 0q-8 -121 -57 -195t-137 -74q-43 0 -142 64q-10 6 -31.5 20.5t-30.5 19.5t-25.5 10 t-30.5 5q-63 0 -80 -106h-117zM371 254q0 -33 30.5 -55.5t63.5 -22.5q61 0 137 45q4 4 4 12v142q-12 2 -43 2q-94 0 -143 -35t-49 -86v-2z" />
<glyph unicode="&#xe4;" horiz-adv-x="1069" d="M45 219q0 104 121 206.5t340 102.5h98q10 162 -125 162q-88 0 -258 -115q-43 51 -106 146q248 203 495 203q121 0 217.5 -90.5t96.5 -217.5q0 -242 -4 -417q0 -10 1 -13.5t9 -1.5l108 4v-168q-33 -12 -133 -26t-209 -14q-23 20 -78 90h-10q-180 -90 -299 -90 q-86 0 -175 73.5t-89 165.5zM229 1171q0 47 36 84t93 37h2q55 0 89 -34.5t34 -81.5q0 -57 -34.5 -93t-94.5 -36q-51 0 -88 35.5t-37 88.5zM371 254q0 -33 30.5 -55.5t63.5 -22.5q61 0 137 45q4 4 4 12v142q-12 2 -43 2q-94 0 -143 -35t-49 -86v-2zM618 1176q0 47 34 81.5 t91 34.5h2q57 0 92 -36.5t35 -84.5q0 -53 -37.5 -88.5t-86.5 -35.5q-59 0 -94.5 35t-35.5 94z" />
<glyph unicode="&#xe5;" horiz-adv-x="1069" d="M45 219q0 104 121 206.5t340 102.5h98q10 162 -125 162q-88 0 -258 -115q-43 51 -106 146q248 203 495 203q121 0 217.5 -90.5t96.5 -217.5q0 -242 -4 -417q0 -10 1 -13.5t9 -1.5l108 4v-168q-33 -12 -133 -26t-209 -14q-23 20 -78 90h-10q-180 -90 -299 -90 q-86 0 -175 73.5t-89 165.5zM324 1241q0 80 72.5 142.5t176.5 62.5h2q106 0 174 -55.5t68 -145.5q0 -92 -71.5 -152.5t-176 -60.5t-175 56.5t-70.5 152.5zM371 254q0 -33 30.5 -55.5t63.5 -22.5q61 0 137 45q4 4 4 12v142q-12 2 -43 2q-94 0 -143 -35t-49 -86v-2zM473 1241 q0 -47 28.5 -75.5t71.5 -28.5q45 0 71 28.5t26 77.5q0 98 -97 98h-2q-43 0 -70.5 -27.5t-27.5 -72.5z" />
<glyph unicode="&#xe6;" horiz-adv-x="1556" d="M45 217q0 104 121 207.5t340 103.5h94q0 164 -119 164q-86 0 -258 -114q-51 61 -108 145q244 201 456 201q156 0 222 -150h12q104 150 313 150q174 0 271 -107q106 -127 106 -319q-2 -20 -49 -68.5t-62 -50.5q-90 -10 -448 -6q6 -86 55 -135q51 -49 158 -50q131 0 285 58 q25 -86 39 -170q-86 -41 -203 -68.5t-195 -27.5q-233 0 -370 122h-17q-92 -57 -197.5 -89.5t-181.5 -32.5q-84 0 -174 71.5t-90 165.5zM373 254q0 -35 31.5 -59.5t72.5 -24.5h2q37 0 82 17.5t66 35.5q6 10 4 17q-16 43 -27 135q-8 2 -33 2q-98 0 -148 -34t-50 -89zM936 535 q115 0 233 4q18 0 19 24q0 76 -25 125q-33 63 -90 64h-2q-57 0 -96 -54t-39 -163z" />
<glyph unicode="&#xe7;" horiz-adv-x="903" d="M61 389q0 225 164 380t428 155q143 0 228 -50q0 -49 -37 -130.5t-68 -98.5q-4 2 -24.5 10.5t-40 16.5t-45 16t-53 13.5t-50.5 5.5q-76 0 -112 -64q-43 -72 -43 -209q0 -123 63 -196q41 -49 139 -50q104 0 236 48q31 -113 39 -164q-102 -53 -226 -74l-161 -139 q61 -10 102 -53.5t41 -106.5q0 -96 -89 -157.5t-257 -61.5q-8 51 -12 117q172 10 172 88q0 39 -25 63q-29 31 -100 25q-4 10 -12.5 35.5t-12.5 35.5l164 138h-10q-57 0 -123 23.5t-128.5 69.5t-104.5 128t-42 186z" />
<glyph unicode="&#xe8;" horiz-adv-x="1021" d="M61 401v2q0 221 144.5 371t372.5 150q182 0 278 -111q104 -125 105 -317q-2 -20 -49.5 -68.5t-61.5 -50.5q-55 -6 -447 -6q6 -86 56 -133q51 -49 151 -50q127 0 289 56q25 -82 39 -168q-88 -41 -205 -68.5t-192 -27.5q-215 0 -347.5 106t-132.5 315zM326 1266 q59 76 135 153l309 -309q-41 -49 -96 -104q-258 197 -348 260zM403 535q113 0 232 4q18 0 18 22q0 80 -24 129q-27 61 -90 62h-2q-61 0 -97 -56q-39 -65 -37 -161z" />
<glyph unicode="&#xe9;" horiz-adv-x="1021" d="M61 401v2q0 221 144.5 371t372.5 150q182 0 278 -111q104 -125 105 -317q-2 -20 -49.5 -68.5t-61.5 -50.5q-55 -6 -447 -6q6 -86 56 -133q51 -49 151 -50q127 0 289 56q25 -82 39 -168q-88 -41 -205 -68.5t-192 -27.5q-215 0 -347.5 106t-132.5 315zM381 1112 q45 43 100.5 95.5t120 115.5t100.5 98q66 -63 138 -155q-49 -35 -176 -125l-191 -135q-65 75 -92 106zM403 535q113 0 232 4q18 0 18 22q0 80 -24 129q-27 61 -90 62h-2q-61 0 -97 -56q-39 -65 -37 -161z" />
<glyph unicode="&#xea;" horiz-adv-x="1021" d="M61 401v2q0 221 144.5 371t372.5 150q182 0 278 -111q104 -125 105 -317q-2 -20 -49.5 -68.5t-61.5 -50.5q-55 -6 -447 -6q6 -86 56 -133q51 -49 151 -50q127 0 289 56q25 -82 39 -168q-88 -41 -205 -68.5t-192 -27.5q-215 0 -347.5 106t-132.5 315zM260 1098 q35 39 248 286q41 2 131 2q41 -45 132 -152.5t118 -137.5q-49 -53 -96 -88q-20 18 -64.5 58t-83.5 75t-72 65q-55 -51 -211 -196q-57 43 -102 88zM403 535q113 0 232 4q18 0 18 22q0 80 -24 129q-27 61 -90 62h-2q-61 0 -97 -56q-39 -65 -37 -161z" />
<glyph unicode="&#xeb;" horiz-adv-x="1021" d="M61 401v2q0 221 144.5 371t372.5 150q182 0 278 -111q104 -125 105 -317q-2 -20 -49.5 -68.5t-61.5 -50.5q-55 -6 -447 -6q6 -86 56 -133q51 -49 151 -50q127 0 289 56q25 -82 39 -168q-88 -41 -205 -68.5t-192 -27.5q-215 0 -347.5 106t-132.5 315zM246 1171 q0 47 35.5 84t93.5 37h2q55 0 89 -34.5t34 -81.5q0 -57 -35 -93t-94 -36q-51 0 -88 35.5t-37 88.5zM403 535q113 0 232 4q18 0 18 22q0 80 -24 129q-27 61 -90 62h-2q-61 0 -97 -56q-39 -65 -37 -161zM635 1176q0 47 33.5 81.5t91.5 34.5h2q57 0 92 -36.5t35 -84.5 q0 -53 -38 -88.5t-87 -35.5q-59 0 -94 35t-35 94z" />
<glyph unicode="&#xec;" horiz-adv-x="653" d="M43 692q0 66 4 176q47 4 158.5 17.5t203 26t97.5 12.5q4 0 4 -6q-6 -670 -6 -742l112 -6v-168h-282q-45 0 -141.5 -1t-137.5 -1q0 115 2 168l109 6q8 0 8 8v506zM72 1266q59 76 135 153l309 -309q-41 -49 -96 -104q-258 197 -348 260z" />
<glyph unicode="&#xed;" horiz-adv-x="653" d="M43 692q0 66 4 176q47 4 158.5 17.5t203 26t97.5 12.5q4 0 4 -6q-6 -670 -6 -742l112 -6v-168h-282q-45 0 -141.5 -1t-137.5 -1q0 115 2 168l109 6q8 0 8 8v506zM147 1112q45 43 100.5 95.5t120 115.5t101.5 98q66 -63 137 -155q-49 -35 -176 -125l-190 -135 q-66 75 -93 106z" />
<glyph unicode="&#xee;" horiz-adv-x="653" d="M27 1098q35 39 247 286q41 2 132 2q41 -45 132 -152.5t117 -137.5q-49 -53 -96 -88q-20 18 -64 58t-83 75t-72 65q-55 -51 -211 -196q-57 43 -102 88zM43 692q0 66 4 176q47 4 158.5 17.5t203 26t97.5 12.5q4 0 4 -6q-6 -670 -6 -742l112 -6v-168h-282q-45 0 -141.5 -1 t-137.5 -1q0 115 2 168l109 6q8 0 8 8v506z" />
<glyph unicode="&#xef;" horiz-adv-x="653" d="M4 1171q0 47 36 84t93 37h2q55 0 89 -34.5t34 -81.5q0 -57 -35 -93t-94 -36q-51 0 -88 35.5t-37 88.5zM43 692q0 66 4 176q47 4 158.5 17.5t203 26t97.5 12.5q4 0 4 -6q-6 -670 -6 -742l112 -6v-168h-282q-45 0 -141.5 -1t-137.5 -1q0 115 2 168l109 6q8 0 8 8v506z M393 1176q0 47 34 81.5t91 34.5h2q57 0 92 -36.5t35 -84.5q0 -53 -38 -88.5t-87 -35.5q-59 0 -94 35t-35 94z" />
<glyph unicode="&#xf0;" horiz-adv-x="1107" d="M61 401q0 227 162 375q123 111 295 111q109 0 150 -33l12 8q-47 147 -135 244q-127 -94 -193 -143q-37 41 -86 108q27 20 79 60t79 61q-78 59 -250 90q12 74 35 156q213 -6 393 -97q14 10 91 68.5t116 89.5q53 -61 90 -117q-27 -20 -82 -60t-82 -60q129 -96 214 -272.5 t85 -364.5q0 -360 -184 -529q-123 -117 -336 -116q-172 0 -276 73q-177 123 -177 348zM410 442q0 -190 49 -260q35 -47 88 -47h2q53 0 92 53q55 86 55 295q0 170 -28 201q-35 41 -115 41q-70 0 -102 -59q-41 -81 -41 -224z" />
<glyph unicode="&#xf1;" horiz-adv-x="1247" d="M45 694q0 29 1 85.5t1 82.5q45 2 146.5 17.5t184.5 29t87 13.5t4 -7q6 -23 14.5 -63.5t14.5 -63.5l10 -2q147 90 206.5 114t131.5 24q61 0 119.5 -45t93.5 -105q47 -78 47 -182q0 -158 -8 -416l102 -6q0 -115 -2 -168h-264q-45 0 -133 -1t-123 -1q0 27 1 84t1 84l82 6 q8 0 8 8v277q0 145 -16 176q-25 43 -78 43q-76 0 -164 -70q-6 -362 -6 -432l88 -6q0 -115 -2 -168h-256q-43 0 -138.5 -1t-134.5 -1q0 27 1.5 84t1.5 84l100 6q8 0 8 8v506zM311 1047q12 121 60.5 194.5t134.5 73.5h2q14 0 30.5 -4t26.5 -7.5t28.5 -13.5t24 -13t27 -18.5 t23.5 -15.5q72 -43 106 -43q59 0 74 103q61 4 115 0q-8 -121 -57.5 -195t-137.5 -74q-43 0 -141 64q-10 6 -32 20.5t-31 19.5t-25.5 10t-30.5 5q-63 0 -80 -106h-117z" />
<glyph unicode="&#xf2;" horiz-adv-x="1118" d="M61 426q0 254 197 399q131 98 332 99q160 0 280 -76q186 -119 187 -379q0 -131 -62.5 -240.5t-158.5 -171.5q-119 -78 -297 -77h-2q-211 0 -324 98q-152 129 -152 348zM326 1266q59 76 135 153l309 -309q-41 -49 -96 -104q-258 197 -348 260zM420 459q0 -195 49 -264 q33 -55 92 -56h2q59 0 90 47q47 68 47 277q0 152 -36 235q-31 63 -97 64q-59 0 -92 -49q-55 -78 -55 -254z" />
<glyph unicode="&#xf3;" horiz-adv-x="1118" d="M61 426q0 254 197 399q131 98 332 99q160 0 280 -76q186 -119 187 -379q0 -131 -62.5 -240.5t-158.5 -171.5q-119 -78 -297 -77h-2q-211 0 -324 98q-152 129 -152 348zM381 1112q45 43 100.5 95.5t120 115.5t100.5 98q66 -63 138 -155q-49 -35 -176 -125l-191 -135 q-65 75 -92 106zM420 459q0 -195 49 -264q33 -55 92 -56h2q59 0 90 47q47 68 47 277q0 152 -36 235q-31 63 -97 64q-59 0 -92 -49q-55 -78 -55 -254z" />
<glyph unicode="&#xf4;" horiz-adv-x="1118" d="M61 426q0 254 197 399q131 98 332 99q160 0 280 -76q186 -119 187 -379q0 -131 -62.5 -240.5t-158.5 -171.5q-119 -78 -297 -77h-2q-211 0 -324 98q-152 129 -152 348zM266 1098q35 39 248 286q41 2 131 2q41 -45 132 -152.5t118 -137.5q-49 -53 -96 -88q-20 18 -64.5 58 t-83.5 75t-71 65q-55 -51 -211 -196q-58 43 -103 88zM420 459q0 -195 49 -264q33 -55 92 -56h2q59 0 90 47q47 68 47 277q0 152 -36 235q-31 63 -97 64q-59 0 -92 -49q-55 -78 -55 -254z" />
<glyph unicode="&#xf5;" horiz-adv-x="1118" d="M61 426q0 254 197 399q131 98 332 99q160 0 280 -76q186 -119 187 -379q0 -131 -62.5 -240.5t-158.5 -171.5q-119 -78 -297 -77h-2q-211 0 -324 98q-152 129 -152 348zM260 1047q12 121 60.5 194.5t134.5 73.5h2q14 0 30.5 -4t26.5 -7.5t28.5 -13.5t23.5 -13t26.5 -18.5 t23.5 -15.5q72 -43 107 -43q59 0 74 103q61 4 114 0q-8 -121 -57 -195t-137 -74q-43 0 -142 64q-10 6 -31.5 20.5t-30.5 19.5t-25.5 10t-30.5 5q-63 0 -80 -106h-117zM420 459q0 -195 49 -264q33 -55 92 -56h2q59 0 90 47q47 68 47 277q0 152 -36 235q-31 63 -97 64 q-59 0 -92 -49q-55 -78 -55 -254z" />
<glyph unicode="&#xf6;" horiz-adv-x="1118" d="M61 426q0 254 197 399q131 98 332 99q160 0 280 -76q186 -119 187 -379q0 -131 -62.5 -240.5t-158.5 -171.5q-119 -78 -297 -77h-2q-211 0 -324 98q-152 129 -152 348zM258 1171q0 47 36 84t93 37h2q55 0 89 -34.5t34 -81.5q0 -57 -35 -93t-94 -36q-51 0 -88 35.5 t-37 88.5zM420 459q0 -195 49 -264q33 -55 92 -56h2q59 0 90 47q47 68 47 277q0 152 -36 235q-31 63 -97 64q-59 0 -92 -49q-55 -78 -55 -254zM647 1176q0 47 34 81.5t91 34.5h2q57 0 92 -36.5t35 -84.5q0 -53 -38 -88.5t-87 -35.5q-59 0 -94 35t-35 94z" />
<glyph unicode="&#xf7;" d="M127 399q0 4 6 183q133 0 498.5 4t398.5 4q0 -102 -6 -193zM436 125v2q0 61 43 103t101 42q61 0 100 -42t39 -111q0 -63 -38 -103.5t-99.5 -40.5t-103.5 40t-42 110zM438 862v2q0 66 42 107t104 41q59 0 98 -41t39 -105q0 -68 -40 -109.5t-108 -41.5q-53 0 -94 40.5 t-41 106.5z" />
<glyph unicode="&#xf8;" horiz-adv-x="1118" d="M31 -25q74 78 135 150q-104 113 -105 299q0 119 50.5 221.5t132.5 167.5q141 111 348 111h2q121 0 223 -47q25 31 68 80t51 59q55 -41 139 -121q-39 -41 -117 -127q43 -47 71 -128t28 -169q0 -131 -61.5 -241.5t-157.5 -172.5q-119 -78 -297 -77q-143 0 -240 45 q-18 -18 -51 -53t-58.5 -62t-46.5 -47q-57 51 -114 112zM389 449q0 -63 4 -97q182 217 283 342q-31 68 -105 68h-2q-70 0 -108 -53q-72 -104 -72 -260zM453 203q41 -63 116 -64h2q63 0 97 49q66 90 65 261q0 25 -4 86q-135 -166 -276 -332z" />
<glyph unicode="&#xf9;" horiz-adv-x="1165" d="M41 723q0 29 1 85t1 83q45 2 223 8t193 6q6 0 6 -8q-6 -430 -6 -473q0 -135 24 -174q27 -43 80 -43q63 0 123 43v467l-100 4q0 63 4 174q303 8 430 8q4 0 4 -8q-6 -651 -6 -698q0 -12 8 -13l115 4q0 -27 -1 -84t-1 -86q-18 -10 -131 -24t-205 -14q-45 33 -94 102h-11 q-121 -68 -173 -85t-117 -17q-92 0 -185.5 97t-93.5 191q0 80 1 233.5t1 217.5zM317 1266q59 76 136 153l309 -309q-41 -49 -96 -104q-259 197 -349 260z" />
<glyph unicode="&#xfa;" horiz-adv-x="1165" d="M41 723q0 29 1 85t1 83q45 2 223 8t193 6q6 0 6 -8q-6 -430 -6 -473q0 -135 24 -174q27 -43 80 -43q63 0 123 43v467l-100 4q0 63 4 174q303 8 430 8q4 0 4 -8q-6 -651 -6 -698q0 -12 8 -13l115 4q0 -27 -1 -84t-1 -86q-18 -10 -131 -24t-205 -14q-45 33 -94 102h-11 q-121 -68 -173 -85t-117 -17q-92 0 -185.5 97t-93.5 191q0 80 1 233.5t1 217.5zM408 1112q45 43 100 95.5t119.5 115.5t101.5 98q66 -63 137 -155q-49 -35 -176 -125l-190 -135q-65 75 -92 106z" />
<glyph unicode="&#xfb;" horiz-adv-x="1165" d="M41 723q0 29 1 85t1 83q45 2 223 8t193 6q6 0 6 -8q-6 -430 -6 -473q0 -135 24 -174q27 -43 80 -43q63 0 123 43v467l-100 4q0 63 4 174q303 8 430 8q4 0 4 -8q-6 -651 -6 -698q0 -12 8 -13l115 4q0 -27 -1 -84t-1 -86q-18 -10 -131 -24t-205 -14q-45 33 -94 102h-11 q-121 -68 -173 -85t-117 -17q-92 0 -185.5 97t-93.5 191q0 80 1 233.5t1 217.5zM264 1098q35 39 248 286q41 2 131 2q41 -45 132 -152.5t118 -137.5q-49 -53 -96 -88q-20 18 -64.5 58t-83.5 75t-71 65q-55 -51 -211 -196q-58 43 -103 88z" />
<glyph unicode="&#xfc;" horiz-adv-x="1165" d="M41 723q0 29 1 85t1 83q45 2 223 8t193 6q6 0 6 -8q-6 -430 -6 -473q0 -135 24 -174q27 -43 80 -43q63 0 123 43v467l-100 4q0 63 4 174q303 8 430 8q4 0 4 -8q-6 -651 -6 -698q0 -12 8 -13l115 4q0 -27 -1 -84t-1 -86q-18 -10 -131 -24t-205 -14q-45 33 -94 102h-11 q-121 -68 -173 -85t-117 -17q-92 0 -185.5 97t-93.5 191q0 80 1 233.5t1 217.5zM244 1171q0 47 35.5 84t93.5 37h2q55 0 89 -34.5t34 -81.5q0 -57 -36 -93t-93 -36q-51 0 -88 35.5t-37 88.5zM633 1176q0 47 33.5 81.5t91.5 34.5h2q57 0 92 -36.5t35 -84.5q0 -53 -38 -88.5 t-87 -35.5q-59 0 -94 35t-35 94z" />
<glyph unicode="&#xfd;" horiz-adv-x="1052" d="M10 727q0 70 4 176h242h293q0 -119 -2 -174l-94 -4q23 -76 65 -213q10 -35 23.5 -73t31 -86t27.5 -81h12q43 135 62 217q41 172 51 224q0 10 -8 10l-70 4q0 121 2 174h234q31 0 90 1t84 1q0 -66 -4 -172l-74 -6q-4 -10 -69.5 -177t-102.5 -257q-174 -424 -303 -627 q-102 -162 -158 -192q-51 0 -148.5 66.5t-97.5 105.5q80 45 148 108q115 104 151 197q-111 272 -170 428q-23 57 -47 120.5t-47.5 127t-34.5 92.5q-2 6 -12 6zM426 1112q45 43 100.5 95.5t120 115.5t101.5 98q66 -63 137 -155q-49 -35 -176 -125l-191 -135q-65 75 -92 106z " />
<glyph unicode="&#xfe;" d="M-2 1083q2 53 2 170q43 4 159.5 18.5t207 26t98.5 11.5q6 0 6 -6q0 -61 -1 -152.5t-4 -197t-3 -146.5l10 -2q133 76 189.5 97.5t123.5 21.5q123 0 214.5 -121t91.5 -281q0 -150 -58 -278q-47 -102 -162 -197q-33 -27 -95 -47t-124 -20q-109 0 -182 28l-12 -4v-317l170 -6 q0 -61 -4 -168q-221 0 -330 -2q-188 0 -270 -3q0 113 2 168l98 9q8 0 8 10v1384zM465 236q0 -29 44 -50.5t83 -21.5q68 0 102 51q47 80 47 227v2q0 137 -30 189q-35 51 -84 51q-70 0 -158 -55q-4 -233 -4 -393z" />
<glyph unicode="&#xff;" horiz-adv-x="1052" d="M10 727q0 70 4 176h242h293q0 -119 -2 -174l-94 -4q23 -76 65 -213q10 -35 23.5 -73t31 -86t27.5 -81h12q43 135 62 217q41 172 51 224q0 10 -8 10l-70 4q0 121 2 174h234q31 0 90 1t84 1q0 -66 -4 -172l-74 -6q-4 -10 -69.5 -177t-102.5 -257q-174 -424 -303 -627 q-102 -162 -158 -192q-51 0 -148.5 66.5t-97.5 105.5q80 45 148 108q115 104 151 197q-111 272 -170 428q-23 57 -47 120.5t-47.5 127t-34.5 92.5q-2 6 -12 6zM244 1171q0 47 35.5 84t93.5 37h2q55 0 89 -34.5t34 -81.5q0 -57 -36 -93t-93 -36q-51 0 -88 35.5t-37 88.5z M633 1176q0 47 33.5 81.5t91.5 34.5h2q57 0 92 -36.5t35 -84.5q0 -53 -38 -88.5t-87 -35.5q-59 0 -94 35t-35 94z" />
<glyph unicode="&#x152;" horiz-adv-x="1968" d="M86 647v2q0 178 70.5 337t201.5 257q150 109 359 109q188 0 289 -105v82h153h469q43 0 115 1t90 1q12 -180 18 -364q-193 -20 -198 -21l-35 156q-4 31 -41 35q-86 12 -215 12h-19l-2 -387q31 0 89.5 1t87.5 3q25 0 30 39l13 76q70 2 192 -2q-2 -33 -3 -106t-1 -107v-201 q-184 -6 -193 -6l-10 84q-6 41 -33 41q-115 4 -174 4v-363q0 -29 18.5 -37t88.5 -8q96 0 164 15q25 8 37 38l61 160q72 -10 199 -37q-37 -193 -74 -358q-96 2 -668 2h-161v106q-117 -127 -340.5 -126.5t-370.5 133.5q-207 192 -207 534zM475 676q0 -162 21.5 -259.5 t78.5 -172.5q68 -90 187 -90q78 0 140.5 44t92.5 128v698q-27 74 -90 114t-135 40q-119 0 -190 -86q-105 -133 -105 -416z" />
<glyph unicode="&#x153;" horiz-adv-x="1648" d="M61 428q0 119 50.5 222.5t134.5 170.5q131 102 321 103q96 0 176 -46.5t119 -115.5h15q117 162 333 162q180 0 273 -111q104 -129 104 -319q-2 -23 -48 -68t-64 -47q-129 -10 -441 -6q6 -86 56 -135q51 -49 153 -50q129 0 283 58q25 -86 39 -170q-86 -41 -203 -68.5 t-195 -27.5q-221 0 -313 143h-14q-117 -143 -324 -143q-195 0 -305 96q-150 131 -150 352zM420 461q0 -186 47 -266q37 -55 96 -56h2q55 0 92 47q43 63 43 273q0 162 -36 239q-27 63 -93 64q-63 0 -96 -49q-55 -78 -55 -252zM1034 535q117 0 219 4q23 0 23 24q0 76 -25 125 q-29 63 -84 64h-2q-57 0 -94 -56q-37 -57 -37 -161z" />
<glyph unicode="&#x178;" horiz-adv-x="1275" d="M16 1157q0 119 2 172h258q63 0 188.5 1t172.5 1q0 -119 -2 -174l-123 -8q92 -223 197 -451h10q121 223 209 441q2 6 -6 10l-111 4q0 119 2 176h291q35 0 96.5 1t85.5 1q0 -119 -2 -176l-90 -6q-250 -430 -393 -649l-2 -318l151 -6q0 -61 -4 -176q-41 0 -151.5 1t-167.5 1 q-47 0 -156 -1t-160 -1q0 61 4 176l129 6q8 0 9 11v305q-61 102 -344 643q0 10 -11 10zM373 1583q0 47 35.5 85t95.5 38h2q57 0 91 -36t34 -83q0 -59 -36 -94t-95 -35q-51 0 -89 36t-38 89zM797 1587q0 47 34.5 83t92.5 36h2q57 0 93 -38t36 -85q0 -53 -38 -89t-89 -36 q-59 0 -95 35t-36 94z" />
<glyph unicode="&#x2c6;" horiz-adv-x="921" d="M147 1098q35 39 248 286q41 2 131 2q41 -45 132.5 -152.5t117.5 -137.5q-49 -53 -96 -88q-20 18 -64.5 58t-83 75l-71.5 65q-55 -51 -211 -196q-58 43 -103 88z" />
<glyph unicode="&#x2dc;" horiz-adv-x="921" d="M135 1047q12 121 60.5 194.5t134.5 73.5h2q14 0 30.5 -4t26.5 -7.5t28.5 -13.5t23.5 -13t26.5 -18.5t24.5 -15.5q72 -43 106 -43q59 0 74 103q61 4 114 0q-8 -121 -57 -195t-137 -74q-43 0 -141 64q-10 6 -32 20.5t-31 19.5t-25.5 10t-30.5 5q-63 0 -80 -106h-117z" />
<glyph unicode="&#x2000;" horiz-adv-x="925" />
<glyph unicode="&#x2001;" horiz-adv-x="1853" />
<glyph unicode="&#x2002;" horiz-adv-x="925" />
<glyph unicode="&#x2003;" horiz-adv-x="1853" />
<glyph unicode="&#x2004;" horiz-adv-x="616" />
<glyph unicode="&#x2005;" horiz-adv-x="462" />
<glyph unicode="&#x2006;" horiz-adv-x="307" />
<glyph unicode="&#x2007;" horiz-adv-x="307" />
<glyph unicode="&#x2008;" horiz-adv-x="231" />
<glyph unicode="&#x2009;" horiz-adv-x="370" />
<glyph unicode="&#x200a;" horiz-adv-x="102" />
<glyph unicode="&#x2010;" horiz-adv-x="768" d="M76 406l6 184q201 0 301 2q125 0 309 4q0 -111 -8 -193h-313h-2q-39 0 -143.5 1.5t-149.5 1.5z" />
<glyph unicode="&#x2011;" horiz-adv-x="768" d="M76 406l6 184q201 0 301 2q125 0 309 4q0 -111 -8 -193h-313h-2q-39 0 -143.5 1.5t-149.5 1.5z" />
<glyph unicode="&#x2012;" horiz-adv-x="768" d="M76 406l6 184q201 0 301 2q125 0 309 4q0 -111 -8 -193h-313h-2q-39 0 -143.5 1.5t-149.5 1.5z" />
<glyph unicode="&#x2013;" horiz-adv-x="1024" d="M78 406q0 98 6 184q154 -2 461 2q174 0 403 4q0 -78 -8 -193h-391h-2q-61 0 -230 1.5t-239 1.5z" />
<glyph unicode="&#x2014;" horiz-adv-x="2048" d="M78 406q0 20 1 57t2 68.5t3 58.5q317 -2 950 2q393 0 938 4q0 -113 -8 -193h-915h-2q-688 1 -969 3z" />
<glyph unicode="&#x2018;" horiz-adv-x="567" d="M109 1008q0 135 90 271t223 200q37 -37 90 -111q-158 -115 -158 -235q0 -31 12.5 -53.5t35 -36t40 -19.5t43.5 -14q2 -102 -47 -166t-133 -64h-2q-74 0 -134 71t-60 157z" />
<glyph unicode="&#x2019;" horiz-adv-x="567" d="M66 846q158 113 157 235q0 88 -127 131q-6 96 43 158t131 62h2q78 0 137.5 -69t59.5 -155q0 -137 -90 -275t-225 -200q-65 80 -88 113z" />
<glyph unicode="&#x201a;" horiz-adv-x="575" d="M78 -258q158 111 158 235q0 90 -127 129q-6 98 43 160t131 62h2q78 0 137 -69t59 -155q0 -137 -90 -275t-225 -200q-65 80 -88 113z" />
<glyph unicode="&#x201c;" horiz-adv-x="985" d="M109 1055q0 129 85 256t209 184q55 -61 84 -106q-150 -106 -149 -215q0 -37 21.5 -62t43 -34t54.5 -19q14 -88 -35 -149.5t-127 -61.5h-2q-74 0 -129 63.5t-55 143.5zM553 1055q0 129 85 256t210 184q37 -41 82 -106q-147 -106 -148 -215q0 -37 22.5 -63t41 -34t53.5 -18 q10 -90 -37 -150.5t-125 -60.5h-2q-72 0 -127 63.5t-55 143.5z" />
<glyph unicode="&#x201d;" horiz-adv-x="985" d="M66 889q147 104 147 217q0 78 -117 121q-8 86 39 145.5t123 59.5h2q74 0 128 -63.5t54 -145.5q0 -129 -83 -256t-209 -185q-55 62 -84 107zM512 889q147 109 147 217q0 80 -118 119q-8 90 39 148.5t122 58.5h3q74 0 128 -63.5t54 -145.5q0 -129 -83 -256t-208 -185 q-64 78 -84 107z" />
<glyph unicode="&#x201e;" horiz-adv-x="991" d="M78 -233q147 104 147 217q0 78 -116 120q-8 86 39 145.5t122 59.5h2q74 0 128.5 -63.5t54.5 -145.5q0 -127 -83 -254t-210 -186q-55 62 -84 107zM522 -233q147 109 148 217q0 80 -119 118q-6 92 40 149.5t122 57.5h2q74 0 128 -63.5t54 -145.5q0 -127 -83 -254t-206 -186 q-57 70 -86 107z" />
<glyph unicode="&#x2022;" horiz-adv-x="862" d="M145 518q0 123 80 215t209 92h2q135 0 209 -88t74 -209q0 -119 -81 -205.5t-206 -86.5q-121 0 -204 77.5t-83 204.5z" />
<glyph unicode="&#x2026;" horiz-adv-x="1951" d="M150 150q0 70 50 119.5t130 49.5h2q78 0 124 -48t46 -117q0 -80 -50.5 -127t-129.5 -47q-66 0 -119 48t-53 122zM801 150q0 70 50 119.5t130 49.5h2q78 0 124 -48t46 -117q0 -80 -50 -127t-130 -47q-66 0 -119 48t-53 122zM1452 150q0 70 50 119.5t130 49.5h2 q78 0 124 -48t46 -117q0 -80 -50 -127t-130 -47q-66 0 -119 48t-53 122z" />
<glyph unicode="&#x202f;" horiz-adv-x="370" />
<glyph unicode="&#x2039;" horiz-adv-x="616" d="M102 516q57 57 170 169t172 169q23 -14 99 -86q-113 -184 -195 -317q127 -213 195 -324q-37 -37 -103 -86q-233 238 -334 338q-4 43 -4 137z" />
<glyph unicode="&#x203a;" horiz-adv-x="616" d="M74 127q121 197 194 326q-66 113 -192 317q61 61 100 88q223 -223 338 -340q0 -51 -4 -137q-57 -57 -168 -170t-170 -172q-51 41 -98 88z" />
<glyph unicode="&#x205f;" horiz-adv-x="462" />
<glyph unicode="&#x20ac;" d="M-2 414v106h100q0 10 -1 29.5t-1 30.5q0 18 4 71h-102v113h117q57 254 260 416q98 76 226 118.5t249 42.5q164 0 246 -30q18 -201 30 -414q-123 -18 -213 -29l-47 213q-4 16 -12 23q-39 27 -74 26q-90 0 -172 -83q-102 -109 -129 -283h305v-113h-313v-12q0 -68 8 -119 h305v-106l-276 2q25 -78 80 -129q41 -39 107.5 -60.5t113.5 -21.5q152 0 287 55q25 -86 34 -190q-227 -90 -389 -90q-256 0 -417 120q-156 115 -203 316z" />
<glyph unicode="&#x2122;" horiz-adv-x="1361" d="M61 1139q4 74 9 192q43 0 130 -1t130 -1q41 0 123 1t122 1q0 -25 3.5 -88t5.5 -104q-16 0 -51 -3t-54 -6l-16 101q-16 6 -57 6l-3 -334l58 -2v-92h-133h-148q0 61 2 92l60 2v334q-45 0 -62 -8l-16 -99q-16 0 -51.5 4.5t-51.5 4.5zM618 809v90l56 2q4 100 4 332l-57 2 q0 66 2 96q41 0 126 -1t123 -1q6 -27 36 -134.5t42 -156.5h11q57 197 86 291q37 0 116.5 1t118.5 1v-96l-57 -2q2 -100 2 -332l57 -2v-90h-115h-112v90l37 2v229h-11q-53 -174 -96 -292h-92q-57 168 -94 297h-13v-234l39 -2v-90h-100h-109z" />
<glyph unicode="&#xe000;" horiz-adv-x="905" d="M0 905h905v-905h-905v905z" />
<glyph unicode="&#xfb01;" horiz-adv-x="1318" d="M35 709q0 31 1 92t1 88q20 0 63 2t62 2q10 0 10 16q0 139 28.5 213t116.5 154q92 84 175 111.5t198 27.5h2q207 0 342 -65q0 -53 -42 -134t-81 -110q-180 98 -295 98q-59 0 -81 -33q-23 -31 -28 -82t1 -194q117 0 225 2q70 0 176.5 6t182.5 10l75 7q4 0 4 -7 q0 -532 -2 -739l113 -4v-168h-283q-41 0 -128 -1t-126 -1q0 115 3 168l86 6q6 0 6 8v525q-33 2 -154 2h-180v-535l98 -4q0 -113 -2 -168h-266q-43 0 -136.5 -1t-131.5 -1q0 113 2 168l100 6q8 0 8 8q0 356 -2 527h-141z" />
<glyph unicode="&#xfb02;" horiz-adv-x="1333" d="M35 707q0 127 2 182q49 0 123 4q12 0 12 16q0 141 27.5 216t109.5 149q102 88 185.5 114.5t226.5 26.5q115 0 254 -20.5t207 -46.5q8 -8 8 -17q0 -184 -4 -612t-4 -543l118 -6q0 -29 -1 -85t-1 -83h-284q-41 0 -131 -1t-125 -1q0 117 2 168l92 6q8 4 8 12v521h-358 q0 -72 -1 -262.5t-1 -268.5l108 -6q0 -111 -2 -168h-270q-43 0 -136.5 -1t-131.5 -1q0 113 2 168l100 8q8 0 8 8q0 354 -2 523h-141zM502 891q53 0 172 1t186 1v305q-86 29 -225 29h-2q-82 0 -107 -43q-28 -45 -24 -293z" />
<glyph unicode="&#xfb03;" horiz-adv-x="1988" d="M33 709q0 33 1 94t1 86q78 4 123 4q12 4 12 16q0 115 25.5 193t93.5 145q154 156 352 156q133 0 207 -39q0 -51 -36 -128t-67 -101q-96 55 -163 55q-47 0 -62 -41q-23 -57 -18 -254h340q10 0 10 14q0 139 29.5 213t117.5 154q92 84 175 111.5t196 27.5q213 0 340 -65 q0 -53 -41 -134t-82 -110q-168 98 -289 98q-66 0 -86 -33q-23 -31 -28.5 -83t-1.5 -193q119 0 225 4q70 0 175.5 5t179 10.5t75.5 5.5q4 0 4 -7q0 -532 -2 -739l113 -4v-168h-277q-41 0 -128 -1t-126 -1q0 27 1 84t1 84l88 6q6 0 7 8v525q-37 2 -158 2h-178v-535l102 -4 q0 -113 -2 -170q-43 0 -130 1t-134 1q-43 0 -137.5 -1t-132.5 -1q0 113 2 168l100 6q8 0 8 10q0 356 -2 525h-356v-535l118 -4q0 -113 -2 -168h-280q-43 0 -137.5 -1t-132.5 -1q0 113 2 168l100 6q8 0 8 10q0 354 -2 525h-141z" />
<glyph unicode="&#xfb04;" horiz-adv-x="2002" d="M35 709q0 31 1 92t1 88q53 0 123 4q12 4 12 16q0 217 119 336q154 158 352 158q125 0 203 -37q0 -49 -35 -128t-66 -99q-102 51 -163 51q-49 0 -64 -41q-20 -43 -16 -254h338q12 0 12 14q0 141 27.5 216t109.5 149q100 88 188.5 114.5t239.5 26.5h2q104 0 238.5 -20.5 t197.5 -42.5q6 -4 7 -17q0 -125 -3.5 -540.5t-5.5 -618.5l117 -6v-168h-278q-41 0 -131.5 -1t-124.5 -1v168l94 6q8 0 8 12v521q-129 2 -360 2q0 -70 -1 -262.5t-1 -270.5l112 -6q0 -113 -2 -170q-25 0 -122 1t-148 1q-43 0 -136.5 -1t-131.5 -1q0 113 2 168l100 6q8 4 8 12 q0 354 -2 523h-354q0 -70 -1 -262.5t-1 -270.5l121 -6q0 -57 -5 -168h-280q-43 0 -136.5 -1t-131.5 -1q0 113 2 168l100 6q8 4 8 10q0 356 -2 525h-141zM1178 889q53 0 172.5 1t187.5 1v309q-80 27 -229 27h-2q-31 0 -62 -15.5t-41 -35.5q-28 -47 -26 -287z" />
</font>
</defs>
</svg>
